<svg width="44" height="43" viewBox="0 0 44 43" fill="none" xmlns="http://www.w3.org/2000/svg">
<path fill-rule="evenodd" clip-rule="evenodd" d="M4.18934 3.68934C6.85828 1.0204 10.8521 0 16 0H28C33.1479 0 37.1417 1.0204 39.8107 3.68934C42.4796 6.35828 43.5 10.3521 43.5 15.5V27.5C43.5 32.6479 42.4796 36.6417 39.8107 39.3107C37.1417 41.9796 33.1479 43 28 43H16C10.8521 43 6.85828 41.9796 4.18934 39.3107C1.5204 36.6417 0.5 32.6479 0.5 27.5V15.5C0.5 10.3521 1.5204 6.35828 4.18934 3.68934ZM6.31066 5.81066C4.4796 7.64172 3.5 10.6479 3.5 15.5V27.5C3.5 32.3521 4.4796 35.3583 6.31066 37.1893C8.14172 39.0204 11.1479 40 16 40H28C32.8521 40 35.8583 39.0204 37.6893 37.1893C39.5204 35.3583 40.5 32.3521 40.5 27.5V15.5C40.5 10.6479 39.5204 7.64172 37.6893 5.81066C35.8583 3.9796 32.8521 3 28 3H16C11.1479 3 8.14172 3.9796 6.31066 5.81066Z" fill="#4F7EF7"/>
<g opacity="0.4">
<path fill-rule="evenodd" clip-rule="evenodd" d="M22 0C22.8284 0 23.5 0.671573 23.5 1.5V41.5C23.5 42.3284 22.8284 43 22 43C21.1716 43 20.5 42.3284 20.5 41.5V1.5C20.5 0.671573 21.1716 0 22 0Z" fill="#4F7EF7"/>
<path fill-rule="evenodd" clip-rule="evenodd" d="M0.5 16.5C0.5 15.6716 1.17157 15 2 15H22C22.8284 15 23.5 15.6716 23.5 16.5C23.5 17.3284 22.8284 18 22 18H2C1.17157 18 0.5 17.3284 0.5 16.5Z" fill="#4F7EF7"/>
<path fill-rule="evenodd" clip-rule="evenodd" d="M20.5 26.5C20.5 25.6716 21.1716 25 22 25H42C42.8284 25 43.5 25.6716 43.5 26.5C43.5 27.3284 42.8284 28 42 28H22C21.1716 28 20.5 27.3284 20.5 26.5Z" fill="#4F7EF7"/>
</g>
</svg>
