<svg width="150" height="56" viewBox="0 0 150 56" fill="none" xmlns="http://www.w3.org/2000/svg">
<rect width="150" height="56" rx="8" fill="black"/>
<path d="M37.0857 26.5804C37.0974 25.7457 37.3384 24.9273 37.7863 24.2014C38.2341 23.4754 38.8743 22.8655 39.6472 22.4283C39.1562 21.7831 38.5084 21.2522 37.7553 20.8776C37.0023 20.5031 36.1646 20.2952 35.309 20.2706C33.4837 20.0944 31.7142 21.2754 30.7841 21.2754C29.836 21.2754 28.4039 20.2881 26.8618 20.3173C25.8643 20.347 24.8922 20.6138 24.0402 21.0919C23.1881 21.5699 22.4852 22.2429 21.9999 23.0452C19.8978 26.3936 21.4658 31.3146 23.4795 34.0213C24.487 35.3466 25.6645 36.8271 27.2052 36.7746C28.7129 36.717 29.276 35.8901 31.0958 35.8901C32.8988 35.8901 33.4271 36.7746 34.9991 36.7412C36.6169 36.717 37.6362 35.4099 38.6084 34.072C39.3322 33.1277 39.8893 32.084 40.2588 30.9795C39.3189 30.6138 38.5168 30.0016 37.9526 29.2193C37.3883 28.437 37.0868 27.5192 37.0857 26.5804Z" fill="white"/>
<path d="M34.1166 18.4906C34.9987 17.5164 35.4332 16.2642 35.328 15C33.9804 15.1302 32.7355 15.7228 31.8415 16.6596C31.4044 17.1173 31.0696 17.6497 30.8563 18.2265C30.643 18.8033 30.5553 19.413 30.5983 20.021C31.2724 20.0274 31.9393 19.893 32.5487 19.6279C33.1581 19.3628 33.6942 18.9739 34.1166 18.4906Z" fill="white"/>
<path d="M56.1452 33.7027H51.0002L49.7646 37.0591H47.5854L52.4587 24.6411H54.7228L59.5961 37.0591H57.3797L56.1452 33.7027ZM51.5331 32.1539H55.6113L53.6009 26.7066H53.5446L51.5331 32.1539Z" fill="white"/>
<path d="M70.1207 32.5328C70.1207 35.3463 68.4839 37.1539 66.0138 37.1539C65.3881 37.184 64.7658 37.0514 64.2182 36.7712C63.6706 36.4911 63.2198 36.0747 62.9175 35.5699H62.8707V40.0542H60.8507V28.0054H62.806V29.5113H62.8432C63.1594 29.0088 63.6178 28.5946 64.1696 28.3128C64.7214 28.0309 65.3459 27.892 65.9766 27.9107C68.4743 27.9107 70.1207 29.7271 70.1207 32.5328ZM68.0444 32.5328C68.0444 30.6998 67.0148 29.4947 65.4438 29.4947C63.9004 29.4947 62.8623 30.7252 62.8623 32.5328C62.8623 34.357 63.9004 35.5787 65.4438 35.5787C67.0148 35.5787 68.0444 34.3824 68.0444 32.5328Z" fill="white"/>
<path d="M80.952 32.5328C80.952 35.3463 79.3152 37.1539 76.8452 37.1539C76.2194 37.184 75.5972 37.0514 75.0496 36.7712C74.502 36.4911 74.0512 36.0747 73.7488 35.5699H73.7021V40.0542H71.6821V28.0054H73.6373V29.5113H73.6745C73.9907 29.0088 74.4491 28.5946 75.0009 28.3128C75.5527 28.0309 76.1772 27.892 76.808 27.9107C79.3057 27.9107 80.952 29.7271 80.952 32.5328ZM78.8758 32.5328C78.8758 30.6998 77.8461 29.4947 76.2751 29.4947C74.7317 29.4947 73.6936 30.7252 73.6936 32.5328C73.6936 34.357 74.7317 35.5787 76.2751 35.5787C77.8461 35.5787 78.8758 34.3824 78.8758 32.5328Z" fill="white"/>
<path d="M88.1106 33.5992C88.2603 34.8306 89.5606 35.6392 91.3376 35.6392C93.0402 35.6392 94.2651 34.8306 94.2651 33.7202C94.2651 32.7564 93.5263 32.1792 91.777 31.7837L90.0277 31.396C87.5491 30.8452 86.3985 29.7788 86.3985 28.0483C86.3985 25.9058 88.428 24.4341 91.31 24.4341C94.1621 24.4341 96.1174 25.9058 96.1832 28.0483H94.1441C94.022 26.8091 92.9085 26.061 91.2813 26.061C89.654 26.061 88.5405 26.8179 88.5405 27.9194C88.5405 28.7974 89.2517 29.314 90.9915 29.7094L92.4786 30.0454C95.248 30.6479 96.3987 31.6714 96.3987 33.4878C96.3987 35.811 94.3872 37.2661 91.1879 37.2661C88.1945 37.2661 86.1734 35.8452 86.0429 33.5991L88.1106 33.5992Z" fill="white"/>
<path d="M100.758 25.8628V28.0054H102.63V29.4771H100.758V34.4683C100.758 35.2437 101.133 35.605 101.956 35.605C102.178 35.6015 102.4 35.5871 102.62 35.562V37.0249C102.25 37.0885 101.874 37.1173 101.498 37.1109C99.5056 37.1109 98.7286 36.4224 98.7286 34.6665V29.4771H97.2978V28.0054H98.7286V25.8628H100.758Z" fill="white"/>
<path d="M103.713 32.5328C103.713 29.6841 105.537 27.8941 108.381 27.8941C111.234 27.8941 113.049 29.6841 113.049 32.5328C113.049 35.3892 111.244 37.1714 108.381 37.1714C105.519 37.1714 103.713 35.3892 103.713 32.5328ZM110.991 32.5328C110.991 30.5787 110.018 29.4254 108.381 29.4254C106.744 29.4254 105.772 30.5875 105.772 32.5328C105.772 34.4947 106.744 35.6392 108.381 35.6392C110.018 35.6392 110.991 34.4947 110.991 32.5328Z" fill="white"/>
<path d="M114.715 28.0054H116.641V29.5464H116.688C116.818 29.0651 117.125 28.6398 117.556 28.3419C117.987 28.044 118.516 27.8918 119.055 27.9107C119.288 27.9099 119.52 27.9332 119.747 27.98V29.7183C119.453 29.6357 119.147 29.5978 118.839 29.606C118.546 29.595 118.253 29.6427 117.982 29.7455C117.71 29.8484 117.466 30.0042 117.266 30.202C117.066 30.3999 116.915 30.6353 116.823 30.892C116.732 31.1486 116.701 31.4205 116.735 31.689V37.0591H114.715L114.715 28.0054Z" fill="white"/>
<path d="M129.06 34.4C128.789 36.0435 127.049 37.1714 124.823 37.1714C121.96 37.1714 120.183 35.4068 120.183 32.5757C120.183 29.7359 121.97 27.8941 124.738 27.8941C127.461 27.8941 129.173 29.6148 129.173 32.3599V32.9966H122.222V33.1089C122.19 33.4421 122.236 33.7778 122.355 34.0936C122.475 34.4095 122.667 34.6983 122.917 34.9408C123.167 35.1834 123.471 35.3741 123.808 35.5004C124.144 35.6267 124.506 35.6857 124.87 35.6734C125.347 35.7145 125.826 35.6128 126.236 35.3834C126.645 35.1539 126.963 34.809 127.142 34.3999L129.06 34.4ZM122.232 31.6978H127.152C127.17 31.3982 127.121 31.0984 127.007 30.8172C126.893 30.536 126.717 30.2794 126.491 30.0637C126.264 29.8479 125.991 29.6776 125.69 29.5634C125.388 29.4491 125.064 29.3935 124.738 29.4C124.409 29.3981 124.083 29.4563 123.779 29.571C123.474 29.6858 123.198 29.8548 122.965 30.0685C122.732 30.2821 122.547 30.5361 122.421 30.8157C122.295 31.0954 122.231 31.3952 122.232 31.6978Z" fill="white"/>
<path d="M51.2799 15.294C51.7034 15.266 52.1284 15.3249 52.5241 15.4663C52.9199 15.6078 53.2766 15.8282 53.5686 16.1119C53.8605 16.3955 54.0804 16.7352 54.2123 17.1065C54.3443 17.4777 54.3851 17.8713 54.3317 18.2588C54.3317 20.1651 53.2118 21.2608 51.2799 21.2608H48.9372V15.294H51.2799ZM49.9446 20.417H51.1674C51.47 20.4336 51.7728 20.388 52.0539 20.2834C52.3349 20.1788 52.587 20.0178 52.7919 19.8123C52.9968 19.6067 53.1493 19.3617 53.2382 19.0951C53.3272 18.8284 53.3505 18.5469 53.3063 18.271C53.3472 17.9962 53.3217 17.7164 53.2313 17.4517C53.141 17.1871 52.9881 16.9441 52.7837 16.7401C52.5793 16.5362 52.3284 16.3764 52.0489 16.2722C51.7695 16.1679 51.4684 16.1218 51.1674 16.1372H49.9446V20.417Z" fill="white"/>
<path d="M55.4696 19.0073C55.4388 18.7114 55.4756 18.4129 55.5776 18.1308C55.6796 17.8487 55.8445 17.5894 56.0619 17.3694C56.2792 17.1494 56.5441 16.9736 56.8396 16.8534C57.1351 16.7331 57.4546 16.671 57.7778 16.671C58.1009 16.671 58.4204 16.7331 58.7159 16.8534C59.0114 16.9736 59.2763 17.1494 59.4936 17.3694C59.711 17.5894 59.8759 17.8487 59.9779 18.1308C60.0799 18.4129 60.1167 18.7114 60.0859 19.0073C60.1173 19.3036 60.0809 19.6025 59.9792 19.8851C59.8775 20.1676 59.7126 20.4274 59.4952 20.6478C59.2779 20.8682 59.0128 21.0444 58.717 21.1649C58.4212 21.2854 58.1013 21.3477 57.7778 21.3477C57.4543 21.3477 57.1343 21.2854 56.8385 21.1649C56.5428 21.0444 56.2776 20.8682 56.0603 20.6478C55.8429 20.4274 55.678 20.1676 55.5763 19.8851C55.4746 19.6025 55.4382 19.3036 55.4696 19.0073ZM59.0924 19.0073C59.0924 18.0313 58.6158 17.4605 57.7793 17.4605C56.9397 17.4605 56.4674 18.0313 56.4674 19.0073C56.4674 19.9912 56.9397 20.5576 57.7793 20.5576C58.6158 20.5576 59.0924 19.9873 59.0924 19.0073Z" fill="white"/>
<path d="M66.2224 21.2607H65.2203L64.2087 17.9443H64.1323L63.125 21.2607H62.1325L60.7833 16.7578H61.7631L62.6399 20.1938H62.7121L63.7183 16.7578H64.645L65.6513 20.1938H65.7277L66.6003 16.7578H67.5662L66.2224 21.2607Z" fill="white"/>
<path d="M68.7009 16.7578H69.6308V17.4731H69.703C69.8254 17.2162 70.0319 17.0009 70.2938 16.8571C70.5556 16.7132 70.8596 16.6482 71.1636 16.6709C71.4017 16.6544 71.6408 16.6875 71.8632 16.7676C72.0856 16.8477 72.2856 16.9728 72.4483 17.1336C72.611 17.2944 72.7322 17.4869 72.8031 17.6967C72.874 17.9065 72.8926 18.1283 72.8577 18.3457V21.2607H71.8917V18.5689C71.8917 17.8452 71.5499 17.4854 70.8356 17.4854C70.6739 17.4784 70.5125 17.5037 70.3624 17.5596C70.2123 17.6154 70.0772 17.7004 69.9662 17.8088C69.8552 17.9172 69.7709 18.0464 69.7193 18.1875C69.6676 18.3286 69.6497 18.4784 69.6669 18.6265V21.2607H68.7009L68.7009 16.7578Z" fill="white"/>
<path d="M74.3968 15H75.3628V21.2607H74.3968V15Z" fill="white"/>
<path d="M76.7055 19.0073C76.6748 18.7114 76.7116 18.4128 76.8136 18.1307C76.9157 17.8487 77.0806 17.5893 77.298 17.3693C77.5153 17.1493 77.7803 16.9736 78.0758 16.8533C78.3713 16.733 78.6909 16.6709 79.014 16.6709C79.3371 16.6709 79.6567 16.733 79.9522 16.8533C80.2477 16.9736 80.5127 17.1493 80.73 17.3693C80.9474 17.5893 81.1123 17.8487 81.2144 18.1307C81.3164 18.4128 81.3532 18.7114 81.3225 19.0073C81.3538 19.3036 81.3174 19.6026 81.2156 19.8851C81.1139 20.1676 80.949 20.4274 80.7316 20.6478C80.5142 20.8682 80.249 21.0444 79.9532 21.1649C79.6574 21.2854 79.3375 21.3477 79.014 21.3477C78.6905 21.3477 78.3706 21.2854 78.0748 21.1649C77.779 21.0444 77.5138 20.8682 77.2964 20.6478C77.079 20.4274 76.9141 20.1676 76.8124 19.8851C76.7106 19.6026 76.6742 19.3036 76.7055 19.0073ZM80.3284 19.0073C80.3284 18.0313 79.8518 17.4605 79.0153 17.4605C78.1757 17.4605 77.7034 18.0313 77.7034 19.0073C77.7034 19.9912 78.1757 20.5576 79.0153 20.5576C79.8518 20.5576 80.3284 19.9873 80.3284 19.0073Z" fill="white"/>
<path d="M82.3394 19.9873C82.3394 19.1768 82.9954 18.7095 84.1598 18.6431L85.4856 18.5728V18.1841C85.4856 17.7085 85.1438 17.44 84.4836 17.44C83.9443 17.44 83.5707 17.6221 83.4635 17.9404H82.5283C82.627 17.167 83.4178 16.6709 84.5281 16.6709C85.7552 16.6709 86.4473 17.2329 86.4473 18.1841V21.2608H85.5174V20.6279H85.441C85.2859 20.8549 85.0681 21.04 84.8098 21.1642C84.5515 21.2884 84.262 21.3473 83.9709 21.3349C83.7654 21.3546 83.5577 21.3344 83.3612 21.2757C83.1648 21.217 82.9838 21.1211 82.8301 20.9942C82.6764 20.8672 82.5533 20.712 82.4688 20.5386C82.3843 20.3652 82.3402 20.1774 82.3394 19.9873ZM85.4856 19.6025V19.2261L84.2904 19.2964C83.6163 19.3379 83.3106 19.5488 83.3106 19.9458C83.3106 20.3511 83.6927 20.5869 84.2182 20.5869C84.3722 20.6013 84.5277 20.587 84.6755 20.5449C84.8234 20.5028 84.9605 20.4338 85.0787 20.3419C85.197 20.2501 85.2939 20.1373 85.3638 20.0103C85.4337 19.8833 85.4751 19.7446 85.4856 19.6025Z" fill="white"/>
<path d="M87.7168 19.0073C87.7168 17.5845 88.5119 16.6831 89.7485 16.6831C90.0544 16.6702 90.358 16.7376 90.6238 16.8775C90.8895 17.0173 91.1066 17.224 91.2494 17.4731H91.3216V15H92.2876V21.2607H91.362V20.5493H91.2855C91.1316 20.7968 90.907 21.0008 90.6361 21.1393C90.3652 21.2778 90.0582 21.3455 89.7485 21.3349C88.5034 21.335 87.7168 20.4336 87.7168 19.0073ZM88.7146 19.0073C88.7146 19.9624 89.204 20.5371 90.0224 20.5371C90.8365 20.5371 91.3397 19.9541 91.3397 19.0112C91.3397 18.0728 90.8312 17.4815 90.0224 17.4815C89.2093 17.4815 88.7146 18.0601 88.7146 19.0073Z" fill="white"/>
<path d="M96.284 19.0073C96.2533 18.7114 96.2901 18.4129 96.3921 18.1308C96.4941 17.8487 96.659 17.5894 96.8763 17.3694C97.0937 17.1494 97.3586 16.9736 97.6541 16.8534C97.9496 16.7331 98.2691 16.671 98.5922 16.671C98.9154 16.671 99.2349 16.7331 99.5304 16.8534C99.8259 16.9736 100.091 17.1494 100.308 17.3694C100.525 17.5894 100.69 17.8487 100.792 18.1308C100.894 18.4129 100.931 18.7114 100.9 19.0073C100.932 19.3036 100.895 19.6025 100.794 19.8851C100.692 20.1676 100.527 20.4274 100.31 20.6478C100.092 20.8682 99.8272 21.0444 99.5314 21.1649C99.2357 21.2854 98.9157 21.3477 98.5922 21.3477C98.2687 21.3477 97.9488 21.2854 97.653 21.1649C97.3572 21.0444 97.0921 20.8682 96.8747 20.6478C96.6574 20.4274 96.4925 20.1676 96.3908 19.8851C96.289 19.6025 96.2527 19.3036 96.284 19.0073ZM99.9069 19.0073C99.9069 18.0313 99.4303 17.4605 98.5938 17.4605C97.7542 17.4605 97.2819 18.0313 97.2819 19.0073C97.2819 19.9912 97.7542 20.5576 98.5938 20.5576C99.4303 20.5576 99.9069 19.9873 99.9069 19.0073Z" fill="white"/>
<path d="M102.196 16.7578H103.126V17.4731H103.199C103.321 17.2162 103.528 17.0009 103.789 16.8571C104.051 16.7132 104.355 16.6482 104.659 16.6709C104.897 16.6544 105.136 16.6875 105.359 16.7676C105.581 16.8477 105.781 16.9728 105.944 17.1336C106.107 17.2944 106.228 17.4869 106.299 17.6967C106.37 17.9065 106.388 18.1283 106.353 18.3457V21.2607H105.387V18.5689C105.387 17.8452 105.046 17.4854 104.331 17.4854C104.169 17.4784 104.008 17.5037 103.858 17.5596C103.708 17.6154 103.573 17.7004 103.462 17.8088C103.351 17.9172 103.267 18.0464 103.215 18.1875C103.163 18.3286 103.145 18.4784 103.162 18.6265V21.2607H102.196V16.7578Z" fill="white"/>
<path d="M111.811 15.6367V16.7783H112.872V17.5269H111.811V19.8423C111.811 20.314 112.023 20.5205 112.503 20.5205C112.627 20.5202 112.75 20.5133 112.872 20.5V21.2402C112.698 21.2688 112.523 21.284 112.346 21.2856C111.272 21.2856 110.844 20.938 110.844 20.0698V17.5268H110.067V16.7783H110.844V15.6367H111.811Z" fill="white"/>
<path d="M114.191 15H115.149V17.4815H115.225C115.354 17.2221 115.566 17.0055 115.833 16.8612C116.1 16.7168 116.409 16.6518 116.717 16.6748C116.954 16.6629 117.191 16.6993 117.411 16.7814C117.631 16.8634 117.828 16.9891 117.989 17.1494C118.15 17.3098 118.271 17.5008 118.343 17.709C118.414 17.9171 118.435 18.1372 118.403 18.3535V21.2607H117.436V18.5728C117.436 17.8535 117.072 17.4893 116.39 17.4893C116.224 17.4767 116.057 17.4977 115.9 17.5508C115.744 17.6038 115.602 17.6877 115.485 17.7964C115.367 17.9051 115.277 18.0362 115.221 18.1803C115.164 18.3244 115.142 18.4782 115.157 18.6308V21.2607H114.191L114.191 15Z" fill="white"/>
<path d="M124.035 20.0449C123.904 20.4565 123.62 20.8125 123.232 21.0506C122.844 21.2888 122.378 21.3939 121.915 21.3477C121.592 21.3555 121.272 21.2987 120.975 21.1811C120.679 21.0636 120.414 20.8882 120.199 20.6671C119.984 20.4459 119.824 20.1844 119.73 19.9005C119.635 19.6167 119.61 19.3174 119.654 19.0234C119.611 18.7286 119.637 18.4286 119.731 18.144C119.825 17.8593 119.985 17.5965 120.198 17.3734C120.412 17.1504 120.676 16.9722 120.971 16.851C121.267 16.7298 121.587 16.6684 121.91 16.6709C123.272 16.6709 124.094 17.5269 124.094 18.9409V19.251H120.638V19.3008C120.622 19.466 120.645 19.6324 120.704 19.7891C120.763 19.9459 120.856 20.0896 120.979 20.211C121.102 20.3325 121.251 20.429 121.417 20.4944C121.582 20.5598 121.761 20.5926 121.941 20.5908C122.172 20.6163 122.406 20.578 122.614 20.4808C122.821 20.3836 122.992 20.2319 123.106 20.0449L124.035 20.0449ZM120.638 18.5938H123.11C123.122 18.4426 123.1 18.2908 123.044 18.1481C122.989 18.0054 122.902 17.8749 122.788 17.7651C122.675 17.6552 122.537 17.5684 122.385 17.5102C122.233 17.452 122.07 17.4238 121.905 17.4273C121.738 17.4253 121.572 17.4542 121.417 17.5121C121.263 17.5701 121.122 17.6559 121.004 17.7646C120.886 17.8734 120.793 18.0027 120.73 18.1451C120.667 18.2875 120.635 18.4401 120.638 18.5938Z" fill="white"/>
</svg>
