<svg width="255" height="40" viewBox="0 0 255 40" fill="none" xmlns="http://www.w3.org/2000/svg">
<rect opacity="0.2" width="255" height="40" rx="8" fill="white"/>
<path d="M230.55 15.74L236.918 13.6175C239.775 12.665 241.328 14.225 240.383 17.0825L238.26 23.45C236.835 27.7325 234.495 27.7325 233.07 23.45L232.44 21.56L230.55 20.93C226.268 19.505 226.268 17.1725 230.55 15.74Z" stroke="white" stroke-width="1.5" stroke-linecap="round" stroke-linejoin="round"/>
<path d="M232.583 21.2375L235.268 18.545" stroke="white" stroke-width="1.5" stroke-linecap="round" stroke-linejoin="round"/>
<path d="M12.358 14.8182H13.7699L16.5938 19.571H16.7131L19.5369 14.8182H20.9489L17.2699 20.804V25H16.0369V20.804L12.358 14.8182ZM24.4066 25.1591C23.7172 25.1591 23.1123 24.995 22.592 24.6669C22.0749 24.3388 21.6706 23.8797 21.3789 23.2898C21.0906 22.6998 20.9464 22.0104 20.9464 21.2216C20.9464 20.4261 21.0906 19.7318 21.3789 19.1385C21.6706 18.5452 22.0749 18.0845 22.592 17.7564C23.1123 17.4283 23.7172 17.2642 24.4066 17.2642C25.096 17.2642 25.6992 17.4283 26.2163 17.7564C26.7366 18.0845 27.141 18.5452 27.4293 19.1385C27.721 19.7318 27.8668 20.4261 27.8668 21.2216C27.8668 22.0104 27.721 22.6998 27.4293 23.2898C27.141 23.8797 26.7366 24.3388 26.2163 24.6669C25.6992 24.995 25.096 25.1591 24.4066 25.1591ZM24.4066 24.1051C24.9303 24.1051 25.3612 23.9709 25.6992 23.7024C26.0373 23.4339 26.2875 23.081 26.4499 22.6435C26.6123 22.206 26.6935 21.732 26.6935 21.2216C26.6935 20.7112 26.6123 20.2356 26.4499 19.7947C26.2875 19.3539 26.0373 18.9976 25.6992 18.7259C25.3612 18.4541 24.9303 18.3182 24.4066 18.3182C23.8829 18.3182 23.4521 18.4541 23.114 18.7259C22.7759 18.9976 22.5257 19.3539 22.3633 19.7947C22.2009 20.2356 22.1197 20.7112 22.1197 21.2216C22.1197 21.732 22.2009 22.206 22.3633 22.6435C22.5257 23.081 22.7759 23.4339 23.114 23.7024C23.4521 23.9709 23.8829 24.1051 24.4066 24.1051ZM34.4703 21.8778V17.3636H35.6436V25H34.4703V23.7074H34.3908C34.2118 24.0952 33.9334 24.425 33.5556 24.6967C33.1777 24.9652 32.7005 25.0994 32.1238 25.0994C31.6465 25.0994 31.2222 24.995 30.851 24.7862C30.4798 24.5741 30.1882 24.2559 29.976 23.8317C29.7639 23.4041 29.6578 22.8655 29.6578 22.2159V17.3636H30.8311V22.1364C30.8311 22.6932 30.9869 23.1373 31.2985 23.4688C31.6133 23.8002 32.0144 23.9659 32.5016 23.9659C32.7933 23.9659 33.0899 23.8913 33.3915 23.7422C33.6964 23.593 33.9516 23.3643 34.1571 23.0561C34.3659 22.7479 34.4703 22.3551 34.4703 21.8778ZM37.7926 25V17.3636H38.9261V18.517H39.0057C39.1449 18.1392 39.3968 17.8326 39.7614 17.5973C40.1259 17.362 40.5369 17.2443 40.9943 17.2443C41.0805 17.2443 41.1882 17.246 41.3175 17.2493C41.4467 17.2526 41.5445 17.2576 41.6108 17.2642V18.4574C41.571 18.4474 41.4799 18.4325 41.3374 18.4126C41.1982 18.3894 41.0507 18.3778 40.8949 18.3778C40.5237 18.3778 40.1922 18.4557 39.9006 18.6115C39.6122 18.764 39.3835 18.9761 39.2145 19.2479C39.0488 19.5163 38.9659 19.8229 38.9659 20.1676V25H37.7926ZM50.1408 25.1591C49.405 25.1591 48.7703 24.9967 48.2367 24.6719C47.7064 24.3438 47.2971 23.8864 47.0087 23.2997C46.7237 22.7098 46.5811 22.0237 46.5811 21.2415C46.5811 20.4593 46.7237 19.7699 47.0087 19.1733C47.2971 18.5734 47.6981 18.1061 48.2118 17.7713C48.7289 17.4332 49.3321 17.2642 50.0215 17.2642C50.4192 17.2642 50.812 17.3305 51.1998 17.4631C51.5875 17.5956 51.9405 17.8111 52.2587 18.1094C52.5769 18.4044 52.8304 18.7955 53.0194 19.2827C53.2083 19.7699 53.3027 20.3698 53.3027 21.0824V21.5795H47.4164V20.5653H52.1096C52.1096 20.1345 52.0234 19.75 51.851 19.4119C51.682 19.0739 51.44 18.8071 51.1252 18.6115C50.8136 18.416 50.4457 18.3182 50.0215 18.3182C49.5542 18.3182 49.1498 18.4342 48.8084 18.6662C48.4703 18.8949 48.2102 19.1932 48.0279 19.5611C47.8456 19.929 47.7544 20.3234 47.7544 20.7443V21.4205C47.7544 21.9972 47.8539 22.486 48.0527 22.8871C48.2549 23.2848 48.535 23.5881 48.8929 23.7969C49.2509 24.0024 49.6668 24.1051 50.1408 24.1051C50.449 24.1051 50.7275 24.062 50.976 23.9759C51.2279 23.8864 51.445 23.7538 51.6273 23.5781C51.8096 23.3991 51.9505 23.1771 52.0499 22.9119L53.1834 23.2301C53.0641 23.6146 52.8636 23.9527 52.5819 24.2443C52.3001 24.5327 51.9521 24.758 51.5378 24.9205C51.1235 25.0795 50.6578 25.1591 50.1408 25.1591ZM55.0875 25V17.3636H56.2211V18.5568H56.3205C56.4796 18.1491 56.7364 17.8326 57.0911 17.6072C57.4457 17.3786 57.8716 17.2642 58.3688 17.2642C58.8726 17.2642 59.2918 17.3786 59.6266 17.6072C59.9647 17.8326 60.2282 18.1491 60.4171 18.5568H60.4966C60.6922 18.1624 60.9855 17.8492 61.3766 17.6172C61.7677 17.3819 62.2367 17.2642 62.7836 17.2642C63.4663 17.2642 64.0248 17.478 64.459 17.9055C64.8932 18.3298 65.1103 18.991 65.1103 19.8892V25H63.937V19.8892C63.937 19.3258 63.7828 18.9231 63.4746 18.6811C63.1664 18.4392 62.8034 18.3182 62.3858 18.3182C61.8489 18.3182 61.4329 18.4806 61.138 18.8054C60.843 19.1269 60.6955 19.5346 60.6955 20.0284V25H59.5023V19.7699C59.5023 19.3357 59.3614 18.986 59.0797 18.7209C58.798 18.4524 58.4351 18.3182 57.9909 18.3182C57.686 18.3182 57.401 18.3994 57.1358 18.5618C56.874 18.7242 56.6619 18.9496 56.4995 19.2379C56.3404 19.523 56.2608 19.8527 56.2608 20.2273V25H55.0875ZM69.5027 25.179C69.0188 25.179 68.5796 25.0878 68.1852 24.9055C67.7908 24.7199 67.4776 24.4531 67.2456 24.1051C67.0136 23.7538 66.8975 23.3295 66.8975 22.8324C66.8975 22.3949 66.9837 22.0402 67.1561 21.7685C67.3284 21.4934 67.5588 21.2779 67.8471 21.1222C68.1355 20.9664 68.4537 20.8504 68.8017 20.7741C69.153 20.6946 69.506 20.6316 69.8606 20.5852C70.3246 20.5256 70.7008 20.4808 70.9892 20.451C71.2808 20.4179 71.493 20.3632 71.6255 20.2869C71.7614 20.2107 71.8294 20.0781 71.8294 19.8892V19.8494C71.8294 19.3589 71.6951 18.9777 71.4267 18.706C71.1615 18.4342 70.7588 18.2983 70.2186 18.2983C69.6584 18.2983 69.2193 18.4209 68.9011 18.6662C68.5829 18.9115 68.3592 19.1733 68.2299 19.4517L67.1163 19.054C67.3152 18.59 67.5803 18.2287 67.9118 17.9702C68.2465 17.7083 68.6111 17.526 69.0055 17.4233C69.4032 17.3172 69.7943 17.2642 70.1788 17.2642C70.4241 17.2642 70.7058 17.294 71.024 17.3537C71.3455 17.41 71.6554 17.5277 71.9537 17.7067C72.2553 17.8857 72.5055 18.1558 72.7044 18.517C72.9032 18.8783 73.0027 19.3622 73.0027 19.9688V25H71.8294V23.9659H71.7697C71.6902 24.1316 71.5576 24.3089 71.372 24.4979C71.1864 24.6868 70.9395 24.8475 70.6312 24.9801C70.323 25.1127 69.9468 25.179 69.5027 25.179ZM69.6816 24.125C70.1457 24.125 70.5368 24.0339 70.8549 23.8516C71.1764 23.6693 71.4184 23.4339 71.5808 23.1456C71.7465 22.8572 71.8294 22.554 71.8294 22.2358V21.1619C71.7797 21.2216 71.6703 21.2763 71.5012 21.326C71.3355 21.3724 71.1433 21.4138 70.9245 21.4503C70.7091 21.4834 70.4986 21.5133 70.2931 21.5398C70.091 21.563 69.9269 21.5829 69.801 21.5994C69.496 21.6392 69.211 21.7038 68.9458 21.7933C68.684 21.8795 68.4719 22.0104 68.3095 22.1861C68.1504 22.3584 68.0708 22.5937 68.0708 22.892C68.0708 23.2997 68.2217 23.608 68.5233 23.8168C68.8282 24.0223 69.2143 24.125 69.6816 24.125ZM75.1442 25V17.3636H76.3175V25H75.1442ZM75.7408 16.0909C75.5121 16.0909 75.3149 16.013 75.1491 15.8572C74.9867 15.7015 74.9055 15.5142 74.9055 15.2955C74.9055 15.0767 74.9867 14.8894 75.1491 14.7337C75.3149 14.5779 75.5121 14.5 75.7408 14.5C75.9695 14.5 76.165 14.5779 76.3274 14.7337C76.4931 14.8894 76.576 15.0767 76.576 15.2955C76.576 15.5142 76.4931 15.7015 76.3274 15.8572C76.165 16.013 75.9695 16.0909 75.7408 16.0909ZM79.6397 14.8182V25H78.4664V14.8182H79.6397ZM87.9734 25.179C87.4895 25.179 87.0503 25.0878 86.6559 24.9055C86.2615 24.7199 85.9483 24.4531 85.7163 24.1051C85.4843 23.7538 85.3683 23.3295 85.3683 22.8324C85.3683 22.3949 85.4544 22.0402 85.6268 21.7685C85.7991 21.4934 86.0295 21.2779 86.3178 21.1222C86.6062 20.9664 86.9244 20.8504 87.2724 20.7741C87.6237 20.6946 87.9767 20.6316 88.3313 20.5852C88.7953 20.5256 89.1715 20.4808 89.4599 20.451C89.7515 20.4179 89.9637 20.3632 90.0962 20.2869C90.2321 20.2107 90.3001 20.0781 90.3001 19.8892V19.8494C90.3001 19.3589 90.1658 18.9777 89.8974 18.706C89.6322 18.4342 89.2295 18.2983 88.6893 18.2983C88.1291 18.2983 87.69 18.4209 87.3718 18.6662C87.0536 18.9115 86.8299 19.1733 86.7006 19.4517L85.587 19.054C85.7859 18.59 86.051 18.2287 86.3825 17.9702C86.7172 17.7083 87.0818 17.526 87.4762 17.4233C87.8739 17.3172 88.265 17.2642 88.6495 17.2642C88.8948 17.2642 89.1765 17.294 89.4947 17.3537C89.8162 17.41 90.1261 17.5277 90.4244 17.7067C90.726 17.8857 90.9762 18.1558 91.1751 18.517C91.3739 18.8783 91.4734 19.3622 91.4734 19.9688V25H90.3001V23.9659H90.2404C90.1609 24.1316 90.0283 24.3089 89.8427 24.4979C89.6571 24.6868 89.4102 24.8475 89.1019 24.9801C88.7937 25.1127 88.4175 25.179 87.9734 25.179ZM88.1523 24.125C88.6164 24.125 89.0075 24.0339 89.3256 23.8516C89.6471 23.6693 89.8891 23.4339 90.0515 23.1456C90.2172 22.8572 90.3001 22.554 90.3001 22.2358V21.1619C90.2504 21.2216 90.141 21.2763 89.9719 21.326C89.8062 21.3724 89.614 21.4138 89.3952 21.4503C89.1798 21.4834 88.9693 21.5133 88.7638 21.5398C88.5617 21.563 88.3976 21.5829 88.2717 21.5994C87.9667 21.6392 87.6817 21.7038 87.4165 21.7933C87.1547 21.8795 86.9426 22.0104 86.7802 22.1861C86.6211 22.3584 86.5415 22.5937 86.5415 22.892C86.5415 23.2997 86.6924 23.608 86.994 23.8168C87.2989 24.0223 87.685 24.125 88.1523 24.125ZM96.4984 25.1591C95.862 25.1591 95.3002 24.9983 94.813 24.6768C94.3258 24.352 93.9447 23.8946 93.6696 23.3047C93.3945 22.7114 93.2569 22.0104 93.2569 21.2017C93.2569 20.3996 93.3945 19.7036 93.6696 19.1136C93.9447 18.5237 94.3275 18.0679 94.818 17.7464C95.3085 17.425 95.8753 17.2642 96.5183 17.2642C97.0154 17.2642 97.4082 17.3471 97.6966 17.5128C97.9882 17.6752 98.2103 17.8608 98.3627 18.0696C98.5185 18.2751 98.6395 18.4441 98.7257 18.5767H98.8251V14.8182H99.9984V25H98.8649V23.8267H98.7257C98.6395 23.9659 98.5169 24.1416 98.3578 24.3537C98.1987 24.5625 97.9717 24.7498 97.6767 24.9155C97.3817 25.0779 96.9889 25.1591 96.4984 25.1591ZM96.6575 24.1051C97.1281 24.1051 97.5259 23.9825 97.8507 23.7372C98.1755 23.4886 98.4224 23.1456 98.5914 22.7081C98.7605 22.2673 98.845 21.7585 98.845 21.1818C98.845 20.6117 98.7621 20.1129 98.5964 19.6854C98.4307 19.2545 98.1854 18.9197 97.8606 18.6811C97.5358 18.4392 97.1348 18.3182 96.6575 18.3182C96.1603 18.3182 95.746 18.4458 95.4146 18.701C95.0865 18.9529 94.8395 19.2959 94.6738 19.7301C94.5114 20.161 94.4302 20.6449 94.4302 21.1818C94.4302 21.7254 94.5131 22.2192 94.6788 22.6634C94.8478 23.1042 95.0964 23.4555 95.4245 23.7173C95.756 23.9759 96.167 24.1051 96.6575 24.1051ZM105.194 25.1591C104.557 25.1591 103.996 24.9983 103.508 24.6768C103.021 24.352 102.64 23.8946 102.365 23.3047C102.09 22.7114 101.952 22.0104 101.952 21.2017C101.952 20.3996 102.09 19.7036 102.365 19.1136C102.64 18.5237 103.023 18.0679 103.513 17.7464C104.004 17.425 104.571 17.2642 105.214 17.2642C105.711 17.2642 106.104 17.3471 106.392 17.5128C106.684 17.6752 106.906 17.8608 107.058 18.0696C107.214 18.2751 107.335 18.4441 107.421 18.5767H107.52V14.8182H108.694V25H107.56V23.8267H107.421C107.335 23.9659 107.212 24.1416 107.053 24.3537C106.894 24.5625 106.667 24.7498 106.372 24.9155C106.077 25.0779 105.684 25.1591 105.194 25.1591ZM105.353 24.1051C105.823 24.1051 106.221 23.9825 106.546 23.7372C106.871 23.4886 107.118 23.1456 107.287 22.7081C107.456 22.2673 107.54 21.7585 107.54 21.1818C107.54 20.6117 107.457 20.1129 107.292 19.6854C107.126 19.2545 106.881 18.9197 106.556 18.6811C106.231 18.4392 105.83 18.3182 105.353 18.3182C104.856 18.3182 104.441 18.4458 104.11 18.701C103.782 18.9529 103.535 19.2959 103.369 19.7301C103.207 20.161 103.126 20.6449 103.126 21.1818C103.126 21.7254 103.208 22.2192 103.374 22.6634C103.543 23.1042 103.792 23.4555 104.12 23.7173C104.451 23.9759 104.862 24.1051 105.353 24.1051ZM111.006 25V17.3636H112.139V18.517H112.219C112.358 18.1392 112.61 17.8326 112.974 17.5973C113.339 17.362 113.75 17.2443 114.207 17.2443C114.293 17.2443 114.401 17.246 114.53 17.2493C114.66 17.2526 114.757 17.2576 114.824 17.2642V18.4574C114.784 18.4474 114.693 18.4325 114.55 18.4126C114.411 18.3894 114.264 18.3778 114.108 18.3778C113.737 18.3778 113.405 18.4557 113.113 18.6115C112.825 18.764 112.596 18.9761 112.427 19.2479C112.262 19.5163 112.179 19.8229 112.179 20.1676V25H111.006ZM119.184 25.1591C118.448 25.1591 117.813 24.9967 117.28 24.6719C116.749 24.3438 116.34 23.8864 116.052 23.2997C115.767 22.7098 115.624 22.0237 115.624 21.2415C115.624 20.4593 115.767 19.7699 116.052 19.1733C116.34 18.5734 116.741 18.1061 117.255 17.7713C117.772 17.4332 118.375 17.2642 119.064 17.2642C119.462 17.2642 119.855 17.3305 120.243 17.4631C120.631 17.5956 120.983 17.8111 121.302 18.1094C121.62 18.4044 121.873 18.7955 122.062 19.2827C122.251 19.7699 122.346 20.3698 122.346 21.0824V21.5795H116.459V20.5653H121.153C121.153 20.1345 121.066 19.75 120.894 19.4119C120.725 19.0739 120.483 18.8071 120.168 18.6115C119.857 18.416 119.489 18.3182 119.064 18.3182C118.597 18.3182 118.193 18.4342 117.851 18.6662C117.513 18.8949 117.253 19.1932 117.071 19.5611C116.889 19.929 116.797 20.3234 116.797 20.7443V21.4205C116.797 21.9972 116.897 22.486 117.096 22.8871C117.298 23.2848 117.578 23.5881 117.936 23.7969C118.294 24.0024 118.71 24.1051 119.184 24.1051C119.492 24.1051 119.77 24.062 120.019 23.9759C120.271 23.8864 120.488 23.7538 120.67 23.5781C120.853 23.3991 120.993 23.1771 121.093 22.9119L122.226 23.2301C122.107 23.6146 121.907 23.9527 121.625 24.2443C121.343 24.5327 120.995 24.758 120.581 24.9205C120.166 25.0795 119.701 25.1591 119.184 25.1591ZM129.54 19.0739L128.486 19.3722C128.419 19.1965 128.322 19.0258 128.192 18.8601C128.066 18.6911 127.894 18.5518 127.675 18.4425C127.456 18.3331 127.176 18.2784 126.835 18.2784C126.368 18.2784 125.978 18.3861 125.667 18.6016C125.358 18.8137 125.204 19.0838 125.204 19.4119C125.204 19.7036 125.31 19.9339 125.523 20.103C125.735 20.272 126.066 20.4129 126.517 20.5256L127.65 20.804C128.333 20.9697 128.842 21.2232 129.177 21.5646C129.511 21.9027 129.679 22.3385 129.679 22.8722C129.679 23.3097 129.553 23.7008 129.301 24.0455C129.052 24.3902 128.704 24.6619 128.257 24.8608C127.809 25.0597 127.289 25.1591 126.696 25.1591C125.917 25.1591 125.272 24.9901 124.762 24.652C124.251 24.3139 123.928 23.8201 123.792 23.1705L124.906 22.892C125.012 23.303 125.213 23.6113 125.508 23.8168C125.806 24.0223 126.195 24.125 126.676 24.125C127.223 24.125 127.657 24.009 127.979 23.777C128.303 23.5417 128.466 23.2599 128.466 22.9318C128.466 22.6667 128.373 22.4446 128.187 22.2656C128.002 22.0833 127.717 21.9474 127.332 21.858L126.059 21.5597C125.36 21.3939 124.846 21.1371 124.518 20.7891C124.193 20.4377 124.031 19.9986 124.031 19.4716C124.031 19.0407 124.152 18.6596 124.394 18.3281C124.639 17.9967 124.972 17.7365 125.393 17.5476C125.818 17.3587 126.298 17.2642 126.835 17.2642C127.591 17.2642 128.184 17.4299 128.615 17.7614C129.049 18.0928 129.357 18.5303 129.54 19.0739ZM136.854 19.0739L135.8 19.3722C135.734 19.1965 135.636 19.0258 135.507 18.8601C135.381 18.6911 135.208 18.5518 134.99 18.4425C134.771 18.3331 134.491 18.2784 134.15 18.2784C133.682 18.2784 133.293 18.3861 132.981 18.6016C132.673 18.8137 132.519 19.0838 132.519 19.4119C132.519 19.7036 132.625 19.9339 132.837 20.103C133.049 20.272 133.381 20.4129 133.831 20.5256L134.965 20.804C135.648 20.9697 136.156 21.2232 136.491 21.5646C136.826 21.9027 136.993 22.3385 136.993 22.8722C136.993 23.3097 136.867 23.7008 136.615 24.0455C136.367 24.3902 136.019 24.6619 135.571 24.8608C135.124 25.0597 134.604 25.1591 134.01 25.1591C133.231 25.1591 132.587 24.9901 132.076 24.652C131.566 24.3139 131.243 23.8201 131.107 23.1705L132.221 22.892C132.327 23.303 132.527 23.6113 132.822 23.8168C133.12 24.0223 133.51 24.125 133.99 24.125C134.537 24.125 134.971 24.009 135.293 23.777C135.618 23.5417 135.78 23.2599 135.78 22.9318C135.78 22.6667 135.687 22.4446 135.502 22.2656C135.316 22.0833 135.031 21.9474 134.647 21.858L133.374 21.5597C132.675 21.3939 132.161 21.1371 131.833 20.7891C131.508 20.4377 131.346 19.9986 131.346 19.4716C131.346 19.0407 131.467 18.6596 131.708 18.3281C131.954 17.9967 132.287 17.7365 132.708 17.5476C133.132 17.3587 133.613 17.2642 134.15 17.2642C134.905 17.2642 135.498 17.4299 135.929 17.7614C136.364 18.0928 136.672 18.5303 136.854 19.0739Z" fill="#F4F5F7"/>
</svg>
