<svg width="282" height="48" viewBox="0 0 282 48" fill="none" xmlns="http://www.w3.org/2000/svg">
<rect x="0.5" y="0.5" width="133" height="47" rx="7.5" stroke="white"/>
<path d="M46.4512 13.3776C46.4693 13.7446 46.4127 14.1114 46.2845 14.4557C46.1564 14.8 45.9596 15.1147 45.706 15.3805C45.4218 15.6753 45.0785 15.9067 44.6987 16.0597C44.3189 16.2127 43.911 16.2837 43.5019 16.2682C43.0901 16.2719 42.6817 16.1932 42.3008 16.0368C41.9198 15.8805 41.574 15.6495 41.2836 15.3575C40.9932 15.0656 40.7641 14.7185 40.6097 14.3367C40.4554 13.9549 40.3789 13.5462 40.3848 13.1344C40.3789 12.7227 40.4554 12.3139 40.6098 11.9321C40.7642 11.5503 40.9933 11.2032 41.2837 10.9112C41.5741 10.6192 41.9199 10.3882 42.3008 10.2318C42.6817 10.0753 43.0901 9.99654 43.5019 10.0001C43.9253 9.99884 44.3444 10.0844 44.7334 10.2516C45.0946 10.3981 45.4162 10.6278 45.6719 10.922L45.1445 11.4498C44.9435 11.2133 44.6909 11.0261 44.4061 10.9026C44.1213 10.7792 43.8119 10.7228 43.5019 10.7379C43.1898 10.7363 42.8806 10.7977 42.5928 10.9184C42.305 11.0391 42.0445 11.2167 41.827 11.4404C41.6094 11.6642 41.4393 11.9295 41.3267 12.2206C41.2141 12.5117 41.1615 12.8225 41.1719 13.1344C41.1644 13.6016 41.2959 14.0605 41.5496 14.4529C41.8033 14.8453 42.1678 15.1535 42.5969 15.3384C43.026 15.5234 43.5003 15.5767 43.9598 15.4917C44.4193 15.4067 44.8431 15.1872 45.1777 14.861C45.4856 14.5293 45.664 14.0979 45.6806 13.6456H43.5019V12.9249H46.4092C46.4367 13.0743 46.4507 13.2258 46.4512 13.3776Z" fill="white"/>
<path d="M51.0605 10.8717H48.3281V12.774H50.792V13.4948H48.3281V15.3971H51.0605V16.1344H47.5576V10.1344H51.0605V10.8717Z" fill="white"/>
<path d="M54.3115 16.1344H53.54V10.8717H51.8642V10.1344H55.9873V10.8717H54.3115V16.1344Z" fill="white"/>
<path d="M58.9707 16.1344V10.1344H59.7412V16.1344H58.9707Z" fill="white"/>
<path d="M63.1611 16.1344H62.3896V10.8717H60.7139V10.1344H64.8369V10.8717H63.1611V16.1344Z" fill="white"/>
<path d="M72.6421 15.359C72.0581 15.9413 71.267 16.2682 70.4424 16.2682C69.6177 16.2682 68.8267 15.9413 68.2427 15.359C67.9538 15.0664 67.7266 14.7187 67.5748 14.3365C67.423 13.9543 67.3496 13.5455 67.3589 13.1344C67.3496 12.7233 67.423 12.3145 67.5748 11.9323C67.7266 11.5502 67.9538 11.2024 68.2427 10.9098C68.5313 10.6211 68.8741 10.3921 69.2514 10.236C69.6286 10.0799 70.033 9.99976 70.4412 10.0001C70.8495 10.0005 71.2537 10.0814 71.6307 10.2381C72.0077 10.3949 72.35 10.6245 72.6382 10.9137C72.9273 11.2056 73.1549 11.5525 73.3073 11.934C73.4598 12.3155 73.5341 12.7237 73.5259 13.1344C73.535 13.5455 73.4614 13.9542 73.3096 14.3363C73.1578 14.7185 72.9308 15.0662 72.6421 15.359ZM68.812 14.8566C69.2445 15.2884 69.8307 15.5309 70.4419 15.5309C71.0531 15.5309 71.6392 15.2884 72.0718 14.8566C72.2936 14.6295 72.467 14.3598 72.5817 14.0638C72.6963 13.7678 72.7498 13.4517 72.7388 13.1344C72.7498 12.8172 72.6963 12.501 72.5817 12.205C72.467 11.909 72.2936 11.6393 72.0718 11.4122C71.6392 10.9804 71.0531 10.7379 70.4419 10.7379C69.8307 10.7379 69.2445 10.9804 68.812 11.4122C68.5905 11.6395 68.4173 11.9092 68.3028 12.2052C68.1884 12.5012 68.135 12.8173 68.146 13.1344C68.135 13.4516 68.1884 13.7677 68.3028 14.0636C68.4173 14.3596 68.5905 14.6294 68.812 14.8566Z" fill="white"/>
<path d="M74.6079 16.1344V10.1344H75.5464L78.4624 14.8019H78.4956L78.4624 13.6456V10.1344H79.2339V16.1344H78.4292L75.3784 11.2408H75.3452L75.3784 12.3971V16.1344H74.6079Z" fill="white"/>
<path d="M46.4512 13.3776C46.4693 13.7446 46.4127 14.1114 46.2845 14.4557C46.1564 14.8 45.9596 15.1147 45.706 15.3805C45.4218 15.6753 45.0785 15.9067 44.6987 16.0597C44.3189 16.2127 43.911 16.2837 43.5019 16.2682C43.0901 16.2719 42.6817 16.1932 42.3008 16.0368C41.9198 15.8805 41.574 15.6495 41.2836 15.3575C40.9932 15.0656 40.7641 14.7185 40.6097 14.3367C40.4554 13.9549 40.3789 13.5462 40.3848 13.1344C40.3789 12.7227 40.4554 12.3139 40.6098 11.9321C40.7642 11.5503 40.9933 11.2032 41.2837 10.9112C41.5741 10.6192 41.9199 10.3882 42.3008 10.2318C42.6817 10.0753 43.0901 9.99654 43.5019 10.0001C43.9253 9.99884 44.3444 10.0844 44.7334 10.2516C45.0946 10.3981 45.4162 10.6278 45.6719 10.922L45.1445 11.4498C44.9435 11.2133 44.6909 11.0261 44.4061 10.9026C44.1213 10.7792 43.8119 10.7228 43.5019 10.7379C43.1898 10.7363 42.8806 10.7977 42.5928 10.9184C42.305 11.0391 42.0445 11.2167 41.827 11.4404C41.6094 11.6642 41.4393 11.9295 41.3267 12.2206C41.2141 12.5117 41.1615 12.8225 41.1719 13.1344C41.1644 13.6016 41.2959 14.0605 41.5496 14.4529C41.8033 14.8453 42.1678 15.1535 42.5969 15.3384C43.026 15.5234 43.5003 15.5767 43.9598 15.4917C44.4193 15.4067 44.8431 15.1872 45.1777 14.861C45.4856 14.5293 45.664 14.0979 45.6806 13.6456H43.5019V12.9249H46.4092C46.4367 13.0743 46.4507 13.2258 46.4512 13.3776Z" stroke="white" stroke-width="0.2" stroke-miterlimit="10"/>
<path d="M51.0605 10.8717H48.3281V12.774H50.792V13.4948H48.3281V15.3971H51.0605V16.1344H47.5576V10.1344H51.0605V10.8717Z" stroke="white" stroke-width="0.2" stroke-miterlimit="10"/>
<path d="M54.3115 16.1344H53.54V10.8717H51.8642V10.1344H55.9873V10.8717H54.3115V16.1344Z" stroke="white" stroke-width="0.2" stroke-miterlimit="10"/>
<path d="M58.9707 16.1344V10.1344H59.7412V16.1344H58.9707Z" stroke="white" stroke-width="0.2" stroke-miterlimit="10"/>
<path d="M63.1611 16.1344H62.3896V10.8717H60.7139V10.1344H64.8369V10.8717H63.1611V16.1344Z" stroke="white" stroke-width="0.2" stroke-miterlimit="10"/>
<path d="M72.6421 15.359C72.0581 15.9413 71.267 16.2682 70.4424 16.2682C69.6177 16.2682 68.8267 15.9413 68.2427 15.359C67.9538 15.0664 67.7266 14.7187 67.5748 14.3365C67.423 13.9543 67.3496 13.5455 67.3589 13.1344C67.3496 12.7233 67.423 12.3145 67.5748 11.9323C67.7266 11.5502 67.9538 11.2024 68.2427 10.9098C68.5313 10.6211 68.8741 10.3921 69.2514 10.236C69.6286 10.0799 70.033 9.99976 70.4412 10.0001C70.8495 10.0005 71.2537 10.0814 71.6307 10.2381C72.0077 10.3949 72.35 10.6245 72.6382 10.9137C72.9273 11.2056 73.1549 11.5525 73.3073 11.934C73.4598 12.3155 73.5341 12.7237 73.5259 13.1344C73.535 13.5455 73.4614 13.9542 73.3096 14.3363C73.1578 14.7185 72.9308 15.0662 72.6421 15.359ZM68.812 14.8566C69.2445 15.2884 69.8307 15.5309 70.4419 15.5309C71.0531 15.5309 71.6392 15.2884 72.0718 14.8566C72.2936 14.6295 72.467 14.3598 72.5817 14.0638C72.6963 13.7678 72.7498 13.4517 72.7388 13.1344C72.7498 12.8172 72.6963 12.501 72.5817 12.205C72.467 11.909 72.2936 11.6393 72.0718 11.4122C71.6392 10.9804 71.0531 10.7379 70.4419 10.7379C69.8307 10.7379 69.2445 10.9804 68.812 11.4122C68.5905 11.6395 68.4173 11.9092 68.3028 12.2052C68.1884 12.5012 68.135 12.8173 68.146 13.1344C68.135 13.4516 68.1884 13.7677 68.3028 14.0636C68.4173 14.3596 68.5905 14.6294 68.812 14.8566Z" stroke="white" stroke-width="0.2" stroke-miterlimit="10"/>
<path d="M74.6079 16.1344V10.1344H75.5464L78.4624 14.8019H78.4956L78.4624 13.6456V10.1344H79.2339V16.1344H78.4292L75.3784 11.2408H75.3452L75.3784 12.3971V16.1344H74.6079Z" stroke="white" stroke-width="0.2" stroke-miterlimit="10"/>
<path d="M67.1686 24.886C66.3281 24.8892 65.5074 25.1413 64.81 25.6106C64.1127 26.0799 63.5701 26.7453 63.2507 27.5227C62.9312 28.3001 62.8493 29.1548 63.0152 29.9788C63.1812 30.8028 63.5875 31.5591 64.183 32.1523C64.7784 32.7455 65.5363 33.149 66.3609 33.3118C67.1855 33.4746 68.0399 33.3894 68.8161 33.067C69.5923 32.7446 70.2556 32.1994 70.7222 31.5004C71.1889 30.8013 71.4379 29.9796 71.4379 29.1391C71.4461 28.5769 71.3412 28.0188 71.1294 27.498C70.9176 26.9772 70.6031 26.5043 70.2048 26.1075C69.8065 25.7107 69.3324 25.3981 68.8108 25.1882C68.2892 24.9784 67.7307 24.8756 67.1686 24.886ZM67.1686 31.7168C66.651 31.7537 66.1342 31.6339 65.6856 31.373C65.237 31.1121 64.8774 30.7222 64.6535 30.2541C64.4296 29.7859 64.3518 29.2612 64.4303 28.7482C64.5088 28.2353 64.74 27.7578 65.0936 27.378C65.4473 26.9983 65.9071 26.7338 66.4131 26.619C66.9192 26.5042 67.4481 26.5444 67.931 26.7344C68.4139 26.9244 68.8284 27.2554 69.1206 27.6843C69.4127 28.1132 69.569 28.6201 69.569 29.1391C69.5847 29.4669 69.5347 29.7946 69.4218 30.1028C69.309 30.411 69.1356 30.6935 68.9119 30.9337C68.6883 31.1739 68.4188 31.3669 68.1194 31.5014C67.82 31.6359 67.4967 31.7091 67.1686 31.7168ZM57.8552 24.886C57.0147 24.8891 56.1939 25.1413 55.4966 25.6106C54.7993 26.0798 54.2566 26.7452 53.9372 27.5226C53.6177 28.3001 53.5358 29.1547 53.7017 29.9787C53.8676 30.8027 54.274 31.559 54.8694 32.1523C55.4649 32.7455 56.2228 33.149 57.0474 33.3118C57.872 33.4746 58.7263 33.3894 59.5026 33.067C60.2788 32.7446 60.9421 32.1995 61.4087 31.5004C61.8754 30.8013 62.1244 29.9796 62.1244 29.1391C62.1326 28.5769 62.0277 28.0188 61.8159 27.498C61.6041 26.9772 61.2897 26.5044 60.8914 26.1075C60.493 25.7107 60.019 25.3981 59.4974 25.1882C58.9758 24.9784 58.4173 24.8756 57.8552 24.886ZM57.8552 31.7168C57.3376 31.7537 56.8208 31.6339 56.3722 31.373C55.9236 31.1121 55.564 30.7222 55.3401 30.2541C55.1162 29.7859 55.0384 29.2612 55.1169 28.7482C55.1954 28.2353 55.4266 27.7578 55.7802 27.378C56.1339 26.9983 56.5937 26.7338 57.0997 26.619C57.6058 26.5042 58.1347 26.5444 58.6176 26.7344C59.1005 26.9244 59.515 27.2554 59.8072 27.6843C60.0993 28.1132 60.2556 28.6201 60.2556 29.1391C60.2713 29.4669 60.2213 29.7946 60.1084 30.1028C59.9956 30.411 59.8222 30.6935 59.5986 30.9337C59.3749 31.1739 59.1054 31.367 58.806 31.5014C58.5066 31.6359 58.1833 31.7091 57.8552 31.7168ZM46.7764 26.191V27.9953H51.0941C51.0318 28.8416 50.6855 29.642 50.1113 30.2669C49.6786 30.7079 49.1583 31.0533 48.5839 31.2809C48.0094 31.5084 47.3937 31.613 46.7764 31.5879C45.5144 31.5708 44.3098 31.0575 43.4234 30.159C42.537 29.2605 42.04 28.0491 42.04 26.787C42.04 25.5248 42.537 24.3135 43.4234 23.415C44.3098 22.5165 45.5144 22.0032 46.7764 21.9861C47.9886 21.9702 49.1581 22.4334 50.0308 23.2749L51.3035 22.0022C50.708 21.4127 50.0009 20.948 49.2235 20.6354C48.4461 20.3228 47.6142 20.1685 46.7764 20.1817C45.9009 20.1689 45.0316 20.3304 44.219 20.6566C43.4064 20.9828 42.6668 21.4673 42.0432 22.082C41.4196 22.6966 40.9243 23.4291 40.5863 24.2368C40.2483 25.0445 40.0742 25.9114 40.0742 26.787C40.0742 27.6626 40.2483 28.5295 40.5863 29.3372C40.9243 30.1449 41.4196 30.8774 42.0432 31.492C42.6668 32.1066 43.4064 32.5911 44.219 32.9174C45.0316 33.2436 45.9009 33.405 46.7764 33.3923C47.6318 33.4278 48.4851 33.2809 49.2794 32.9615C50.0738 32.6421 50.7912 32.1574 51.384 31.5396C52.4364 30.3908 52.9973 28.8758 52.9468 27.3187C52.9509 26.9405 52.9185 26.5629 52.85 26.191H46.7764ZM92.0847 27.5925C91.8291 26.8221 91.3425 26.1491 90.6911 25.6649C90.0397 25.1807 89.255 24.9087 88.4437 24.886C87.8972 24.8894 87.3571 25.0035 86.856 25.2216C86.3549 25.4396 85.9033 25.757 85.5283 26.1546C85.1534 26.5521 84.8629 27.0215 84.6745 27.5345C84.4861 28.0475 84.4037 28.5934 84.4323 29.1391C84.42 29.6983 84.5205 30.2542 84.7278 30.7737C84.9352 31.2931 85.2451 31.7655 85.6391 32.1625C86.0331 32.5595 86.503 32.873 87.0209 33.0843C87.5388 33.2956 88.0939 33.4003 88.6532 33.3923C89.3538 33.3962 90.0445 33.226 90.6631 32.897C91.2817 32.568 91.8089 32.0905 92.1974 31.5074L90.7475 30.5408C90.5303 30.9015 90.223 31.1996 89.8559 31.4058C89.4887 31.6119 89.0743 31.7191 88.6532 31.7168C88.2199 31.7334 87.7916 31.6193 87.4239 31.3895C87.0562 31.1597 86.766 30.8247 86.591 30.428L92.2781 28.0759L92.0847 27.5925ZM86.285 29.0103C86.2649 28.7007 86.3069 28.3903 86.4083 28.0971C86.5097 27.804 86.6685 27.534 86.8755 27.3029C87.0825 27.0719 87.3335 26.8845 87.6139 26.7516C87.8942 26.6188 88.1982 26.5432 88.5081 26.5293C88.8308 26.5081 89.1526 26.5823 89.4333 26.7427C89.7141 26.9032 89.9414 27.1427 90.087 27.4315L86.285 29.0103ZM81.6612 33.1345H83.53V20.6329H81.6612V33.1345ZM78.6002 25.8365H78.5358C78.2517 25.5278 77.9049 25.2833 77.5187 25.1194C77.1325 24.9555 76.7158 24.8759 76.2964 24.886C75.1997 24.9327 74.1634 25.4012 73.4039 26.1937C72.6444 26.9862 72.2204 28.0414 72.2204 29.1391C72.2204 30.2368 72.6444 31.2921 73.4039 32.0846C74.1634 32.8771 75.1997 33.3456 76.2964 33.3923C76.7175 33.4035 77.1359 33.3228 77.5227 33.1559C77.9094 32.989 78.2551 32.7398 78.5358 32.4257H78.6002V33.0379C78.6002 34.6651 77.7303 35.535 76.3286 35.535C75.8614 35.5238 75.4082 35.3738 75.0266 35.1041C74.6451 34.8344 74.3524 34.4572 74.186 34.0206L72.5588 34.6973C72.8655 35.444 73.3881 36.082 74.0597 36.5298C74.7314 36.9776 75.5214 37.2146 76.3286 37.2105C78.5197 37.2105 80.3724 35.9217 80.3724 32.7801V25.1437H78.6002V25.8365ZM76.4576 31.7168C75.8116 31.662 75.2098 31.3667 74.7712 30.8894C74.3326 30.412 74.0892 29.7874 74.0892 29.1391C74.0892 28.4909 74.3326 27.8663 74.7712 27.3889C75.2098 26.9115 75.8116 26.6163 76.4576 26.5615C76.7789 26.5772 77.0938 26.6574 77.3835 26.7974C77.6732 26.9374 77.9318 27.1343 78.1437 27.3763C78.3557 27.6183 78.5168 27.9006 78.6173 28.2062C78.7179 28.5118 78.7559 28.8346 78.7291 29.1552C78.7542 29.4738 78.7148 29.7942 78.6133 30.0973C78.5117 30.4003 78.35 30.6798 78.138 30.9189C77.9259 31.1581 77.6678 31.352 77.3791 31.4891C77.0903 31.6262 76.7769 31.7036 76.4576 31.7168ZM100.839 20.6331H96.3674V33.1345H98.2331V28.3981H100.839C101.366 28.427 101.894 28.348 102.391 28.166C102.887 27.984 103.341 27.7027 103.725 27.3393C104.108 26.9759 104.414 26.5381 104.623 26.0526C104.832 25.5671 104.94 25.0441 104.94 24.5156C104.94 23.987 104.832 23.464 104.623 22.9785C104.414 22.493 104.108 22.0552 103.725 21.6919C103.341 21.3285 102.887 21.0472 102.391 20.8652C101.894 20.6831 101.366 20.6042 100.839 20.6331ZM100.887 26.6583H98.2331V22.373H100.887C101.172 22.3671 101.455 22.4181 101.72 22.5232C101.986 22.6282 102.227 22.7851 102.431 22.9846C102.635 23.1842 102.796 23.4224 102.907 23.6853C103.017 23.9482 103.074 24.2305 103.074 24.5156C103.074 24.8008 103.017 25.0831 102.907 25.346C102.796 25.6089 102.635 25.8471 102.431 26.0467C102.227 26.2462 101.986 26.4031 101.72 26.5081C101.455 26.6131 101.172 26.6642 100.887 26.6583ZM112.418 24.863C111.737 24.8232 111.06 24.9831 110.468 25.3231C109.877 25.6631 109.398 26.1684 109.089 26.7769L110.746 27.4685C110.91 27.1665 111.159 26.9189 111.462 26.756C111.764 26.5932 112.108 26.5222 112.451 26.5517C112.924 26.5055 113.396 26.6488 113.764 26.9503C114.132 27.2518 114.365 27.6868 114.413 28.16V28.2887C113.814 27.9704 113.145 27.8046 112.467 27.8062C110.681 27.8062 108.864 28.7873 108.864 30.6208C108.881 31.0072 108.976 31.3862 109.143 31.7353C109.309 32.0843 109.544 32.3964 109.834 32.6529C110.123 32.9094 110.462 33.1051 110.828 33.2285C111.195 33.3518 111.582 33.4003 111.968 33.371C112.438 33.3986 112.907 33.2998 113.325 33.0849C113.744 32.8699 114.097 32.5466 114.348 32.1487H114.413V33.1137H116.214V28.3209C116.214 26.1014 114.557 24.863 112.418 24.863ZM112.193 31.7144C111.582 31.7144 110.73 31.4089 110.73 30.6529C110.73 29.688 111.791 29.318 112.708 29.318C113.303 29.3021 113.892 29.4466 114.413 29.7362C114.344 30.2784 114.082 30.7775 113.674 31.1412C113.266 31.5048 112.74 31.7084 112.193 31.7144ZM122.776 25.1364L120.637 30.5564H120.573L118.353 25.1364H116.343L119.672 32.7116L117.774 36.9254H119.72L124.851 25.1364H122.776ZM105.969 33.1345H107.835V20.6331H105.969V33.1345Z" fill="white"/>
<path d="M9.46643 10.4067C9.13852 10.7988 8.97295 11.3014 9.00363 11.8116V33.9277C8.97286 34.4379 9.13844 34.9406 9.46643 35.3326L9.54043 35.4047L21.9294 23.0158V22.7235L9.54043 10.3341L9.46643 10.4067Z" fill="url(#paint0_linear_1010_893)"/>
<path d="M26.0588 27.1472L21.9294 23.0158V22.7235L26.0598 18.5931L26.1529 18.6462L31.0457 21.4263C32.4433 22.2203 32.4433 23.5195 31.0457 24.314L26.1529 27.0941L26.0588 27.1472Z" fill="url(#paint1_linear_1010_893)"/>
<path d="M26.1529 27.0937L21.9294 22.8698L9.46643 35.3327C9.7512 35.5838 10.1149 35.7274 10.4944 35.7386C10.8739 35.7499 11.2454 35.628 11.5445 35.394L26.1529 27.0937Z" fill="url(#paint2_linear_1010_893)"/>
<path d="M26.1529 18.6457L11.5445 10.3453C11.2454 10.1114 10.8739 9.9895 10.4944 10.0007C10.1149 10.0119 9.7512 10.1556 9.46643 10.4067L21.9294 22.8697L26.1529 18.6457Z" fill="url(#paint3_linear_1010_893)"/>
<path opacity="0.2" d="M26.0598 27.0006L11.5445 35.2479C11.2569 35.4668 10.906 35.5863 10.5445 35.5882C10.1831 35.5901 9.83084 35.4745 9.54093 35.2586L9.46643 35.3331L9.54043 35.4052L9.54093 35.4047C9.83079 35.6207 10.1831 35.7364 10.5445 35.7345C10.906 35.7326 11.257 35.6131 11.5445 35.394L26.1529 27.0936L26.0598 27.0006Z" fill="black"/>
<path opacity="0.12" d="M9.46641 35.187C9.13853 34.7949 8.97296 34.2923 9.00361 33.7821V33.9282C8.97294 34.4384 9.13851 34.941 9.46641 35.3331L9.54091 35.2586L9.46641 35.187Z" fill="black"/>
<path opacity="0.12" d="M31.0457 24.1674L26.0598 27.0006L26.1529 27.0936L31.0457 24.3135C31.3335 24.1886 31.5826 23.9888 31.767 23.735C31.9513 23.4811 32.0643 23.1825 32.094 22.8701C32.0322 23.153 31.9052 23.4175 31.7232 23.6427C31.5412 23.8679 31.3093 24.0476 31.0457 24.1674Z" fill="black"/>
<path opacity="0.25" d="M11.5445 10.4919L31.0457 21.5719C31.3094 21.6917 31.5414 21.8714 31.7234 22.0967C31.9054 22.322 32.0323 22.5867 32.094 22.8697C32.0645 22.5572 31.9516 22.2584 31.7673 22.0044C31.5829 21.7505 31.3337 21.5506 31.0457 21.4258L11.5445 10.3458C10.1469 9.55167 9.00363 10.2113 9.00363 11.8121V11.9582C9.00363 10.3575 10.1469 9.69787 11.5445 10.4919Z" fill="white"/>
<rect x="148.5" y="0.5" width="133" height="47" rx="7.5" stroke="white"/>
<path d="M179.797 22.5804C179.808 21.7457 180.03 20.9273 180.442 20.2014C180.854 19.4754 181.443 18.8655 182.154 18.4283C181.702 17.7831 181.106 17.2522 180.413 16.8776C179.721 16.5031 178.95 16.2952 178.163 16.2706C176.483 16.0944 174.856 17.2754 174 17.2754C173.128 17.2754 171.81 16.2881 170.391 16.3173C169.474 16.347 168.579 16.6138 167.795 17.0919C167.012 17.5699 166.365 18.2429 165.918 19.0452C163.984 22.3936 165.427 27.3146 167.28 30.0213C168.206 31.3466 169.29 32.8271 170.707 32.7746C172.094 32.717 172.612 31.8901 174.287 31.8901C175.945 31.8901 176.431 32.7746 177.878 32.7412C179.366 32.717 180.304 31.4099 181.198 30.072C181.864 29.1277 182.377 28.084 182.717 26.9795C181.852 26.6138 181.114 26.0016 180.595 25.2193C180.076 24.437 179.798 23.5192 179.797 22.5804Z" fill="white"/>
<path d="M177.066 14.4906C177.877 13.5164 178.277 12.2642 178.18 11C176.94 11.1302 175.795 11.7228 174.973 12.6596C174.57 13.1173 174.262 13.6497 174.066 14.2265C173.87 14.8033 173.789 15.413 173.829 16.021C174.449 16.0274 175.063 15.893 175.623 15.6279C176.184 15.3628 176.677 14.9739 177.066 14.4906Z" fill="white"/>
<path d="M197.332 29.7027H192.599L191.462 33.0591H189.457L193.94 20.6411H196.023L200.507 33.0591H198.468L197.332 29.7027ZM193.089 28.1539H196.841L194.991 22.7066H194.939L193.089 28.1539Z" fill="white"/>
<path d="M210.189 28.5328C210.189 31.3463 208.684 33.1539 206.411 33.1539C205.835 33.184 205.263 33.0514 204.759 32.7712C204.255 32.4911 203.841 32.0747 203.563 31.5699H203.52V36.0542H201.661V24.0054H203.46V25.5113H203.494C203.785 25.0088 204.207 24.5946 204.714 24.3128C205.222 24.0309 205.797 23.892 206.377 23.9107C208.675 23.9107 210.189 25.7271 210.189 28.5328ZM208.279 28.5328C208.279 26.6998 207.332 25.4947 205.887 25.4947C204.467 25.4947 203.512 26.7252 203.512 28.5328C203.512 30.357 204.467 31.5787 205.887 31.5787C207.332 31.5787 208.279 30.3824 208.279 28.5328Z" fill="white"/>
<path d="M220.154 28.5328C220.154 31.3463 218.648 33.1539 216.376 33.1539C215.8 33.184 215.228 33.0514 214.724 32.7712C214.22 32.4911 213.806 32.0747 213.527 31.5699H213.484V36.0542H211.626V24.0054H213.425V25.5113H213.459C213.75 25.0088 214.172 24.5946 214.679 24.3128C215.187 24.0309 215.761 23.892 216.342 23.9107C218.64 23.9107 220.154 25.7271 220.154 28.5328ZM218.244 28.5328C218.244 26.6998 217.297 25.4947 215.852 25.4947C214.432 25.4947 213.477 26.7252 213.477 28.5328C213.477 30.357 214.432 31.5787 215.852 31.5787C217.297 31.5787 218.244 30.3824 218.244 28.5328Z" fill="white"/>
<path d="M226.74 29.5992C226.878 30.8306 228.074 31.6392 229.709 31.6392C231.275 31.6392 232.402 30.8306 232.402 29.7202C232.402 28.7564 231.723 28.1792 230.113 27.7837L228.504 27.396C226.224 26.8452 225.165 25.7788 225.165 24.0483C225.165 21.9058 227.032 20.4341 229.684 20.4341C232.308 20.4341 234.106 21.9058 234.167 24.0483H232.291C232.179 22.8091 231.154 22.061 229.657 22.061C228.16 22.061 227.136 22.8179 227.136 23.9194C227.136 24.7974 227.79 25.314 229.391 25.7094L230.759 26.0454C233.307 26.6479 234.365 27.6714 234.365 29.4878C234.365 31.811 232.515 33.2661 229.571 33.2661C226.817 33.2661 224.958 31.8452 224.838 29.5991L226.74 29.5992Z" fill="white"/>
<path d="M238.376 21.8628V24.0054H240.098V25.4771H238.376V30.4683C238.376 31.2437 238.721 31.605 239.478 31.605C239.682 31.6015 239.886 31.5871 240.089 31.562V33.0249C239.749 33.0885 239.403 33.1173 239.057 33.1109C237.224 33.1109 236.509 32.4224 236.509 30.6665V25.4771H235.192V24.0054H236.509V21.8628H238.376Z" fill="white"/>
<path d="M241.095 28.5328C241.095 25.6841 242.772 23.8941 245.389 23.8941C248.014 23.8941 249.684 25.6841 249.684 28.5328C249.684 31.3892 248.022 33.1714 245.389 33.1714C242.756 33.1714 241.095 31.3892 241.095 28.5328ZM247.79 28.5328C247.79 26.5787 246.895 25.4254 245.389 25.4254C243.883 25.4254 242.988 26.5875 242.988 28.5328C242.988 30.4947 243.883 31.6392 245.389 31.6392C246.895 31.6392 247.79 30.4947 247.79 28.5328Z" fill="white"/>
<path d="M251.216 24.0054H252.988V25.5464H253.031C253.151 25.0651 253.433 24.6398 253.83 24.3419C254.226 24.044 254.713 23.8918 255.209 23.9107C255.423 23.9099 255.637 23.9332 255.846 23.98V25.7183C255.575 25.6357 255.293 25.5978 255.011 25.606C254.741 25.595 254.472 25.6427 254.222 25.7455C253.972 25.8484 253.747 26.0042 253.563 26.202C253.379 26.3999 253.24 26.6353 253.156 26.892C253.072 27.1486 253.044 27.4205 253.074 27.689V33.0591H251.216L251.216 24.0054Z" fill="white"/>
<path d="M264.414 30.4C264.164 32.0435 262.563 33.1714 260.516 33.1714C257.882 33.1714 256.247 31.4068 256.247 28.5757C256.247 25.7359 257.891 23.8941 260.438 23.8941C262.942 23.8941 264.518 25.6148 264.518 28.3599V28.9966H258.123V29.1089C258.094 29.4421 258.135 29.7778 258.245 30.0936C258.356 30.4095 258.532 30.6983 258.762 30.9408C258.992 31.1834 259.272 31.3741 259.582 31.5004C259.891 31.6267 260.224 31.6857 260.559 31.6734C260.998 31.7145 261.438 31.6128 261.815 31.3834C262.192 31.1539 262.484 30.809 262.649 30.3999L264.414 30.4ZM258.132 27.6978H262.658C262.675 27.3982 262.629 27.0984 262.525 26.8172C262.42 26.536 262.258 26.2794 262.05 26.0637C261.841 25.8479 261.591 25.6776 261.313 25.5634C261.036 25.4491 260.737 25.3935 260.438 25.4C260.135 25.3981 259.835 25.4563 259.555 25.571C259.275 25.6858 259.02 25.8548 258.806 26.0685C258.592 26.2821 258.422 26.5361 258.306 26.8157C258.19 27.0954 258.131 27.3952 258.132 27.6978Z" fill="white"/>
<path d="M192.856 11.294C193.246 11.266 193.637 11.3249 194.001 11.4663C194.365 11.6078 194.693 11.8282 194.962 12.1119C195.23 12.3955 195.432 12.7352 195.554 13.1065C195.675 13.4777 195.713 13.8713 195.664 14.2588C195.664 16.1651 194.633 17.2608 192.856 17.2608H190.701V11.294H192.856ZM191.627 16.417H192.752C193.031 16.4336 193.309 16.388 193.568 16.2834C193.827 16.1788 194.058 16.0178 194.247 15.8123C194.435 15.6067 194.576 15.3617 194.658 15.0951C194.739 14.8284 194.761 14.5469 194.72 14.271C194.758 13.9962 194.734 13.7164 194.651 13.4517C194.568 13.1871 194.427 12.9441 194.239 12.7401C194.051 12.5362 193.821 12.3764 193.563 12.2722C193.306 12.1679 193.029 12.1218 192.752 12.1372H191.627V16.417Z" fill="white"/>
<path d="M196.71 15.0073C196.682 14.7114 196.716 14.4129 196.81 14.1308C196.904 13.8487 197.055 13.5894 197.255 13.3694C197.455 13.1494 197.699 12.9736 197.971 12.8534C198.243 12.7331 198.537 12.671 198.834 12.671C199.131 12.671 199.425 12.7331 199.697 12.8534C199.969 12.9736 200.213 13.1494 200.413 13.3694C200.613 13.5894 200.764 13.8487 200.858 14.1308C200.952 14.4129 200.986 14.7114 200.958 15.0073C200.986 15.3036 200.953 15.6025 200.859 15.8851C200.766 16.1676 200.614 16.4274 200.414 16.6478C200.214 16.8682 199.97 17.0444 199.698 17.1649C199.426 17.2854 199.132 17.3477 198.834 17.3477C198.536 17.3477 198.242 17.2854 197.97 17.1649C197.698 17.0444 197.454 16.8682 197.254 16.6478C197.054 16.4274 196.902 16.1676 196.809 15.8851C196.715 15.6025 196.682 15.3036 196.71 15.0073ZM200.043 15.0073C200.043 14.0313 199.605 13.4605 198.835 13.4605C198.063 13.4605 197.628 14.0313 197.628 15.0073C197.628 15.9912 198.063 16.5576 198.835 16.5576C199.605 16.5576 200.043 15.9873 200.043 15.0073Z" fill="white"/>
<path d="M206.603 17.2607H205.681L204.75 13.9443H204.68L203.753 17.2607H202.84L201.599 12.7578H202.5L203.307 16.1938H203.374L204.299 12.7578H205.152L206.078 16.1938H206.148L206.951 12.7578H207.839L206.603 17.2607Z" fill="white"/>
<path d="M208.883 12.7578H209.739V13.4731H209.805C209.918 13.2162 210.108 13.0009 210.349 12.8571C210.59 12.7132 210.869 12.6482 211.149 12.6709C211.368 12.6544 211.588 12.6875 211.793 12.7676C211.997 12.8477 212.181 12.9728 212.331 13.1336C212.481 13.2944 212.592 13.4869 212.657 13.6967C212.723 13.9065 212.74 14.1283 212.708 14.3457V17.2607H211.819V14.5689C211.819 13.8452 211.504 13.4854 210.847 13.4854C210.698 13.4784 210.55 13.5037 210.412 13.5596C210.274 13.6154 210.149 13.7004 210.047 13.8088C209.945 13.9172 209.868 14.0464 209.82 14.1875C209.773 14.3286 209.756 14.4784 209.772 14.6265V17.2607H208.883L208.883 12.7578Z" fill="white"/>
<path d="M214.124 11H215.012V17.2607H214.124V11Z" fill="white"/>
<path d="M216.248 15.0073C216.219 14.7114 216.253 14.4128 216.347 14.1307C216.441 13.8487 216.593 13.5893 216.793 13.3693C216.993 13.1493 217.236 12.9736 217.508 12.8533C217.78 12.733 218.074 12.6709 218.371 12.6709C218.669 12.6709 218.963 12.733 219.234 12.8533C219.506 12.9736 219.75 13.1493 219.95 13.3693C220.15 13.5893 220.302 13.8487 220.396 14.1307C220.49 14.4128 220.523 14.7114 220.495 15.0073C220.524 15.3036 220.49 15.6026 220.397 15.8851C220.303 16.1676 220.152 16.4274 219.951 16.6478C219.751 16.8682 219.508 17.0444 219.235 17.1649C218.963 17.2854 218.669 17.3477 218.371 17.3477C218.074 17.3477 217.779 17.2854 217.507 17.1649C217.235 17.0444 216.991 16.8682 216.791 16.6478C216.591 16.4274 216.439 16.1676 216.346 15.8851C216.252 15.6026 216.219 15.3036 216.248 15.0073ZM219.581 15.0073C219.581 14.0313 219.142 13.4605 218.373 13.4605C217.6 13.4605 217.166 14.0313 217.166 15.0073C217.166 15.9912 217.6 16.5576 218.373 16.5576C219.142 16.5576 219.581 15.9873 219.581 15.0073Z" fill="white"/>
<path d="M221.431 15.9873C221.431 15.1768 222.034 14.7095 223.105 14.6431L224.325 14.5728V14.1841C224.325 13.7085 224.011 13.44 223.403 13.44C222.907 13.44 222.563 13.6221 222.465 13.9404H221.604C221.695 13.167 222.423 12.6709 223.444 12.6709C224.573 12.6709 225.21 13.2329 225.21 14.1841V17.2608H224.354V16.6279H224.284C224.141 16.8549 223.941 17.04 223.703 17.1642C223.466 17.2884 223.199 17.3473 222.932 17.3349C222.743 17.3546 222.552 17.3344 222.371 17.2757C222.19 17.217 222.024 17.1211 221.882 16.9942C221.741 16.8672 221.628 16.712 221.55 16.5386C221.472 16.3652 221.431 16.1774 221.431 15.9873ZM224.325 15.6025V15.2261L223.226 15.2964C222.605 15.3379 222.324 15.5488 222.324 15.9458C222.324 16.3511 222.676 16.5869 223.159 16.5869C223.301 16.6013 223.444 16.587 223.58 16.5449C223.716 16.5028 223.842 16.4338 223.951 16.3419C224.06 16.2501 224.149 16.1373 224.213 16.0103C224.277 15.8833 224.316 15.7446 224.325 15.6025Z" fill="white"/>
<path d="M226.378 15.0073C226.378 13.5845 227.109 12.6831 228.247 12.6831C228.528 12.6702 228.808 12.7376 229.052 12.8775C229.297 13.0173 229.496 13.224 229.628 13.4731H229.694V11H230.583V17.2607H229.731V16.5493H229.661C229.52 16.7968 229.313 17.0008 229.064 17.1393C228.814 17.2778 228.532 17.3455 228.247 17.3349C227.102 17.335 226.378 16.4336 226.378 15.0073ZM227.296 15.0073C227.296 15.9624 227.746 16.5371 228.499 16.5371C229.248 16.5371 229.711 15.9541 229.711 15.0112C229.711 14.0728 229.243 13.4815 228.499 13.4815C227.751 13.4815 227.296 14.0601 227.296 15.0073Z" fill="white"/>
<path d="M234.26 15.0073C234.231 14.7114 234.265 14.4129 234.359 14.1308C234.453 13.8487 234.605 13.5894 234.805 13.3694C235.005 13.1494 235.248 12.9736 235.52 12.8534C235.792 12.7331 236.086 12.671 236.383 12.671C236.681 12.671 236.975 12.7331 237.246 12.8534C237.518 12.9736 237.762 13.1494 237.962 13.3694C238.162 13.5894 238.314 13.8487 238.407 14.1308C238.501 14.4129 238.535 14.7114 238.507 15.0073C238.536 15.3036 238.502 15.6025 238.409 15.8851C238.315 16.1676 238.163 16.4274 237.963 16.6478C237.763 16.8682 237.519 17.0444 237.247 17.1649C236.975 17.2854 236.681 17.3477 236.383 17.3477C236.086 17.3477 235.791 17.2854 235.519 17.1649C235.247 17.0444 235.003 16.8682 234.803 16.6478C234.603 16.4274 234.452 16.1676 234.358 15.8851C234.264 15.6025 234.231 15.3036 234.26 15.0073ZM237.593 15.0073C237.593 14.0313 237.154 13.4605 236.385 13.4605C235.612 13.4605 235.178 14.0313 235.178 15.0073C235.178 15.9912 235.612 16.5576 236.385 16.5576C237.154 16.5576 237.593 15.9873 237.593 15.0073Z" fill="white"/>
<path d="M239.699 12.7578H240.555V13.4731H240.621C240.734 13.2162 240.924 13.0009 241.165 12.8571C241.405 12.7132 241.685 12.6482 241.965 12.6709C242.184 12.6544 242.404 12.6875 242.609 12.7676C242.813 12.8477 242.997 12.9728 243.147 13.1336C243.296 13.2944 243.408 13.4869 243.473 13.6967C243.538 13.9065 243.556 14.1283 243.523 14.3457V17.2607H242.635V14.5689C242.635 13.8452 242.32 13.4854 241.663 13.4854C241.514 13.4784 241.366 13.5037 241.228 13.5596C241.09 13.6154 240.965 13.7004 240.863 13.8088C240.761 13.9172 240.684 14.0464 240.636 14.1875C240.589 14.3286 240.572 14.4784 240.588 14.6265V17.2607H239.699V12.7578Z" fill="white"/>
<path d="M248.545 11.6367V12.7783H249.521V13.5269H248.545V15.8423C248.545 16.314 248.739 16.5205 249.182 16.5205C249.295 16.5202 249.408 16.5133 249.521 16.5V17.2402C249.361 17.2688 249.199 17.284 249.037 17.2856C248.049 17.2856 247.655 16.938 247.655 16.0698V13.5268H246.94V12.7783H247.655V11.6367H248.545Z" fill="white"/>
<path d="M250.734 11H251.615V13.4815H251.686C251.804 13.2221 251.999 13.0055 252.245 12.8612C252.49 12.7168 252.775 12.6518 253.059 12.6748C253.277 12.6629 253.494 12.6993 253.697 12.7814C253.899 12.8634 254.081 12.9891 254.229 13.1494C254.377 13.3098 254.488 13.5008 254.554 13.709C254.619 13.9171 254.638 14.1372 254.609 14.3535V17.2607H253.72V14.5728C253.72 13.8535 253.385 13.4893 252.757 13.4893C252.604 13.4767 252.451 13.4977 252.307 13.5508C252.163 13.6038 252.033 13.6877 251.925 13.7964C251.817 13.9051 251.734 14.0362 251.682 14.1803C251.629 14.3244 251.61 14.4782 251.623 14.6308V17.2607H250.734L250.734 11Z" fill="white"/>
<path d="M259.791 16.0449C259.67 16.4565 259.409 16.8125 259.052 17.0506C258.695 17.2888 258.266 17.3939 257.84 17.3477C257.543 17.3555 257.248 17.2987 256.976 17.1811C256.703 17.0636 256.46 16.8882 256.262 16.6671C256.064 16.4459 255.916 16.1844 255.83 15.9005C255.743 15.6167 255.719 15.3174 255.76 15.0234C255.72 14.7286 255.745 14.4286 255.831 14.144C255.918 13.8593 256.064 13.5965 256.261 13.3734C256.458 13.1504 256.7 12.9722 256.972 12.851C257.244 12.7298 257.538 12.6684 257.836 12.6709C259.089 12.6709 259.845 13.5269 259.845 14.9409V15.251H256.665V15.3008C256.651 15.466 256.672 15.6324 256.726 15.7891C256.78 15.9459 256.866 16.0896 256.979 16.211C257.092 16.3325 257.229 16.429 257.382 16.4944C257.534 16.5598 257.698 16.5926 257.864 16.5908C258.077 16.6163 258.292 16.578 258.483 16.4808C258.674 16.3836 258.831 16.2319 258.936 16.0449L259.791 16.0449ZM256.665 14.5938H258.939C258.951 14.4426 258.93 14.2908 258.879 14.1481C258.828 14.0054 258.748 13.8749 258.644 13.7651C258.539 13.6552 258.413 13.5684 258.273 13.5102C258.133 13.452 257.983 13.4238 257.831 13.4273C257.677 13.4253 257.525 13.4542 257.382 13.5121C257.24 13.5701 257.111 13.6559 257.002 13.7646C256.893 13.8734 256.808 14.0027 256.75 14.1451C256.692 14.2875 256.663 14.4401 256.665 14.5938Z" fill="white"/>
<defs>
<linearGradient id="paint0_linear_1010_893" x1="20.8308" y1="11.5784" x2="4.04836" y2="28.3608" gradientUnits="userSpaceOnUse">
<stop stop-color="#00A0FF"/>
<stop offset="0.00657" stop-color="#00A1FF"/>
<stop offset="0.2601" stop-color="#00BEFF"/>
<stop offset="0.5122" stop-color="#00D2FF"/>
<stop offset="0.7604" stop-color="#00DFFF"/>
<stop offset="1" stop-color="#00E3FF"/>
</linearGradient>
<linearGradient id="paint1_linear_1010_893" x1="32.8654" y1="22.8702" x2="8.66852" y2="22.8702" gradientUnits="userSpaceOnUse">
<stop stop-color="#FFE000"/>
<stop offset="0.4087" stop-color="#FFBD00"/>
<stop offset="0.7754" stop-color="#FFA500"/>
<stop offset="1" stop-color="#FF9C00"/>
</linearGradient>
<linearGradient id="paint2_linear_1010_893" x1="23.858" y1="25.1649" x2="1.0997" y2="47.9231" gradientUnits="userSpaceOnUse">
<stop stop-color="#FF3A44"/>
<stop offset="1" stop-color="#C31162"/>
</linearGradient>
<linearGradient id="paint3_linear_1010_893" x1="6.32836" y1="3.04489" x2="16.4909" y2="13.2074" gradientUnits="userSpaceOnUse">
<stop stop-color="#32A071"/>
<stop offset="0.0685" stop-color="#2DA771"/>
<stop offset="0.4762" stop-color="#15CF74"/>
<stop offset="0.8009" stop-color="#06E775"/>
<stop offset="1" stop-color="#00F076"/>
</linearGradient>
</defs>
</svg>
