<svg width="150" height="56" viewBox="0 0 150 56" fill="none" xmlns="http://www.w3.org/2000/svg">
<rect width="150" height="56" rx="8" fill="black"/>
<path d="M54.4512 17.3776C54.4693 17.7446 54.4127 18.1114 54.2845 18.4557C54.1564 18.8 53.9596 19.1147 53.706 19.3805C53.4218 19.6753 53.0785 19.9067 52.6987 20.0597C52.3189 20.2127 51.911 20.2837 51.5019 20.2682C51.0901 20.2719 50.6817 20.1932 50.3008 20.0368C49.9198 19.8805 49.574 19.6495 49.2836 19.3575C48.9932 19.0656 48.7641 18.7185 48.6097 18.3367C48.4554 17.9549 48.3789 17.5462 48.3848 17.1344C48.3789 16.7227 48.4554 16.3139 48.6098 15.9321C48.7642 15.5503 48.9933 15.2032 49.2837 14.9112C49.5741 14.6192 49.9199 14.3882 50.3008 14.2318C50.6817 14.0753 51.0901 13.9965 51.5019 14.0001C51.9253 13.9988 52.3444 14.0844 52.7334 14.2516C53.0946 14.3981 53.4162 14.6278 53.6719 14.922L53.1445 15.4498C52.9435 15.2133 52.6909 15.0261 52.4061 14.9026C52.1213 14.7792 51.8119 14.7228 51.5019 14.7379C51.1898 14.7363 50.8806 14.7977 50.5928 14.9184C50.305 15.0391 50.0445 15.2167 49.827 15.4404C49.6094 15.6642 49.4393 15.9295 49.3267 16.2206C49.2141 16.5117 49.1615 16.8225 49.1719 17.1344C49.1644 17.6016 49.2959 18.0605 49.5496 18.4529C49.8033 18.8453 50.1678 19.1535 50.5969 19.3384C51.026 19.5234 51.5003 19.5767 51.9598 19.4917C52.4193 19.4067 52.8431 19.1872 53.1777 18.861C53.4856 18.5293 53.664 18.0979 53.6806 17.6456H51.5019V16.9249H54.4092C54.4367 17.0743 54.4507 17.2258 54.4512 17.3776Z" fill="white"/>
<path d="M59.0605 14.8717H56.3281V16.774H58.792V17.4948H56.3281V19.3971H59.0605V20.1344H55.5576V14.1344H59.0605V14.8717Z" fill="white"/>
<path d="M62.3115 20.1344H61.54V14.8717H59.8642V14.1344H63.9873V14.8717H62.3115V20.1344Z" fill="white"/>
<path d="M66.9707 20.1344V14.1344H67.7412V20.1344H66.9707Z" fill="white"/>
<path d="M71.1611 20.1344H70.3896V14.8717H68.7139V14.1344H72.8369V14.8717H71.1611V20.1344Z" fill="white"/>
<path d="M80.6421 19.359C80.0581 19.9413 79.267 20.2682 78.4424 20.2682C77.6177 20.2682 76.8267 19.9413 76.2427 19.359C75.9538 19.0664 75.7266 18.7187 75.5748 18.3365C75.423 17.9543 75.3496 17.5455 75.3589 17.1344C75.3496 16.7233 75.423 16.3145 75.5748 15.9323C75.7266 15.5502 75.9538 15.2024 76.2427 14.9098C76.5313 14.6211 76.8741 14.3921 77.2514 14.236C77.6286 14.0799 78.033 13.9998 78.4412 14.0001C78.8495 14.0005 79.2537 14.0814 79.6307 14.2381C80.0077 14.3949 80.35 14.6245 80.6382 14.9137C80.9273 15.2056 81.1549 15.5525 81.3073 15.934C81.4598 16.3155 81.5341 16.7237 81.5259 17.1344C81.535 17.5455 81.4614 17.9542 81.3096 18.3363C81.1578 18.7185 80.9308 19.0662 80.6421 19.359ZM76.812 18.8566C77.2445 19.2884 77.8307 19.5309 78.4419 19.5309C79.0531 19.5309 79.6392 19.2884 80.0718 18.8566C80.2936 18.6295 80.467 18.3598 80.5817 18.0638C80.6963 17.7678 80.7498 17.4517 80.7388 17.1344C80.7498 16.8172 80.6963 16.501 80.5817 16.205C80.467 15.909 80.2936 15.6393 80.0718 15.4122C79.6392 14.9804 79.0531 14.7379 78.4419 14.7379C77.8307 14.7379 77.2445 14.9804 76.812 15.4122C76.5905 15.6395 76.4173 15.9092 76.3028 16.2052C76.1884 16.5012 76.135 16.8173 76.146 17.1344C76.135 17.4516 76.1884 17.7677 76.3028 18.0636C76.4173 18.3596 76.5905 18.6294 76.812 18.8566Z" fill="white"/>
<path d="M82.6079 20.1344V14.1344H83.5464L86.4624 18.8019H86.4956L86.4624 17.6456V14.1344H87.2339V20.1344H86.4292L83.3784 15.2408H83.3452L83.3784 16.3971V20.1344H82.6079Z" fill="white"/>
<path d="M54.4512 17.3776C54.4693 17.7446 54.4127 18.1114 54.2845 18.4557C54.1564 18.8 53.9596 19.1147 53.706 19.3805C53.4218 19.6753 53.0785 19.9067 52.6987 20.0597C52.3189 20.2127 51.911 20.2837 51.5019 20.2682C51.0901 20.2719 50.6817 20.1932 50.3008 20.0368C49.9198 19.8805 49.574 19.6495 49.2836 19.3575C48.9932 19.0656 48.7641 18.7185 48.6097 18.3367C48.4554 17.9549 48.3789 17.5462 48.3848 17.1344C48.3789 16.7227 48.4554 16.3139 48.6098 15.9321C48.7642 15.5503 48.9933 15.2032 49.2837 14.9112C49.5741 14.6192 49.9199 14.3882 50.3008 14.2318C50.6817 14.0753 51.0901 13.9965 51.5019 14.0001C51.9253 13.9988 52.3444 14.0844 52.7334 14.2516C53.0946 14.3981 53.4162 14.6278 53.6719 14.922L53.1445 15.4498C52.9435 15.2133 52.6909 15.0261 52.4061 14.9026C52.1213 14.7792 51.8119 14.7228 51.5019 14.7379C51.1898 14.7363 50.8806 14.7977 50.5928 14.9184C50.305 15.0391 50.0445 15.2167 49.827 15.4404C49.6094 15.6642 49.4393 15.9295 49.3267 16.2206C49.2141 16.5117 49.1615 16.8225 49.1719 17.1344C49.1644 17.6016 49.2959 18.0605 49.5496 18.4529C49.8033 18.8453 50.1678 19.1535 50.5969 19.3384C51.026 19.5234 51.5003 19.5767 51.9598 19.4917C52.4193 19.4067 52.8431 19.1872 53.1777 18.861C53.4856 18.5293 53.664 18.0979 53.6806 17.6456H51.5019V16.9249H54.4092C54.4367 17.0743 54.4507 17.2258 54.4512 17.3776Z" stroke="white" stroke-width="0.2" stroke-miterlimit="10"/>
<path d="M59.0605 14.8717H56.3281V16.774H58.792V17.4948H56.3281V19.3971H59.0605V20.1344H55.5576V14.1344H59.0605V14.8717Z" stroke="white" stroke-width="0.2" stroke-miterlimit="10"/>
<path d="M62.3115 20.1344H61.54V14.8717H59.8642V14.1344H63.9873V14.8717H62.3115V20.1344Z" stroke="white" stroke-width="0.2" stroke-miterlimit="10"/>
<path d="M66.9707 20.1344V14.1344H67.7412V20.1344H66.9707Z" stroke="white" stroke-width="0.2" stroke-miterlimit="10"/>
<path d="M71.1611 20.1344H70.3896V14.8717H68.7139V14.1344H72.8369V14.8717H71.1611V20.1344Z" stroke="white" stroke-width="0.2" stroke-miterlimit="10"/>
<path d="M80.6421 19.359C80.0581 19.9413 79.267 20.2682 78.4424 20.2682C77.6177 20.2682 76.8267 19.9413 76.2427 19.359C75.9538 19.0664 75.7266 18.7187 75.5748 18.3365C75.423 17.9543 75.3496 17.5455 75.3589 17.1344C75.3496 16.7233 75.423 16.3145 75.5748 15.9323C75.7266 15.5502 75.9538 15.2024 76.2427 14.9098C76.5313 14.6211 76.8741 14.3921 77.2514 14.236C77.6286 14.0799 78.033 13.9998 78.4412 14.0001C78.8495 14.0005 79.2537 14.0814 79.6307 14.2381C80.0077 14.3949 80.35 14.6245 80.6382 14.9137C80.9273 15.2056 81.1549 15.5525 81.3073 15.934C81.4598 16.3155 81.5341 16.7237 81.5259 17.1344C81.535 17.5455 81.4614 17.9542 81.3096 18.3363C81.1578 18.7185 80.9308 19.0662 80.6421 19.359ZM76.812 18.8566C77.2445 19.2884 77.8307 19.5309 78.4419 19.5309C79.0531 19.5309 79.6392 19.2884 80.0718 18.8566C80.2936 18.6295 80.467 18.3598 80.5817 18.0638C80.6963 17.7678 80.7498 17.4517 80.7388 17.1344C80.7498 16.8172 80.6963 16.501 80.5817 16.205C80.467 15.909 80.2936 15.6393 80.0718 15.4122C79.6392 14.9804 79.0531 14.7379 78.4419 14.7379C77.8307 14.7379 77.2445 14.9804 76.812 15.4122C76.5905 15.6395 76.4173 15.9092 76.3028 16.2052C76.1884 16.5012 76.135 16.8173 76.146 17.1344C76.135 17.4516 76.1884 17.7677 76.3028 18.0636C76.4173 18.3596 76.5905 18.6294 76.812 18.8566Z" stroke="white" stroke-width="0.2" stroke-miterlimit="10"/>
<path d="M82.6079 20.1344V14.1344H83.5464L86.4624 18.8019H86.4956L86.4624 17.6456V14.1344H87.2339V20.1344H86.4292L83.3784 15.2408H83.3452L83.3784 16.3971V20.1344H82.6079Z" stroke="white" stroke-width="0.2" stroke-miterlimit="10"/>
<path d="M75.1686 28.886C74.3281 28.8892 73.5074 29.1413 72.81 29.6106C72.1127 30.0799 71.5701 30.7453 71.2507 31.5227C70.9312 32.3001 70.8493 33.1548 71.0152 33.9788C71.1812 34.8028 71.5875 35.5591 72.183 36.1523C72.7784 36.7455 73.5363 37.149 74.3609 37.3118C75.1855 37.4746 76.0399 37.3894 76.8161 37.067C77.5923 36.7446 78.2556 36.1994 78.7222 35.5004C79.1889 34.8013 79.4379 33.9796 79.4379 33.1391C79.4461 32.5769 79.3412 32.0188 79.1294 31.498C78.9176 30.9772 78.6031 30.5043 78.2048 30.1075C77.8065 29.7107 77.3324 29.3981 76.8108 29.1882C76.2892 28.9784 75.7307 28.8756 75.1686 28.886ZM75.1686 35.7168C74.651 35.7537 74.1342 35.6339 73.6856 35.373C73.237 35.1121 72.8774 34.7222 72.6535 34.2541C72.4296 33.7859 72.3518 33.2612 72.4303 32.7482C72.5088 32.2353 72.74 31.7578 73.0936 31.378C73.4473 30.9983 73.9071 30.7338 74.4131 30.619C74.9192 30.5042 75.4481 30.5444 75.931 30.7344C76.4139 30.9244 76.8284 31.2554 77.1206 31.6843C77.4127 32.1132 77.569 32.6201 77.569 33.1391C77.5847 33.4669 77.5347 33.7946 77.4218 34.1028C77.309 34.411 77.1356 34.6935 76.9119 34.9337C76.6883 35.1739 76.4188 35.3669 76.1194 35.5014C75.82 35.6359 75.4967 35.7091 75.1686 35.7168ZM65.8552 28.886C65.0147 28.8891 64.1939 29.1413 63.4966 29.6106C62.7993 30.0798 62.2566 30.7452 61.9372 31.5226C61.6177 32.3001 61.5358 33.1547 61.7017 33.9787C61.8676 34.8027 62.274 35.559 62.8694 36.1523C63.4649 36.7455 64.2228 37.149 65.0474 37.3118C65.872 37.4746 66.7263 37.3894 67.5026 37.067C68.2788 36.7446 68.9421 36.1995 69.4087 35.5004C69.8754 34.8013 70.1244 33.9796 70.1244 33.1391C70.1326 32.5769 70.0277 32.0188 69.8159 31.498C69.6041 30.9772 69.2897 30.5044 68.8914 30.1075C68.493 29.7107 68.019 29.3981 67.4974 29.1882C66.9758 28.9784 66.4173 28.8756 65.8552 28.886ZM65.8552 35.7168C65.3376 35.7537 64.8208 35.6339 64.3722 35.373C63.9236 35.1121 63.564 34.7222 63.3401 34.2541C63.1162 33.7859 63.0384 33.2612 63.1169 32.7482C63.1954 32.2353 63.4266 31.7578 63.7802 31.378C64.1339 30.9983 64.5937 30.7338 65.0997 30.619C65.6058 30.5042 66.1347 30.5444 66.6176 30.7344C67.1005 30.9244 67.515 31.2554 67.8072 31.6843C68.0993 32.1132 68.2556 32.6201 68.2556 33.1391C68.2713 33.4669 68.2213 33.7946 68.1084 34.1028C67.9956 34.411 67.8222 34.6935 67.5986 34.9337C67.3749 35.1739 67.1054 35.367 66.806 35.5014C66.5066 35.6359 66.1833 35.7091 65.8552 35.7168ZM54.7764 30.191V31.9953H59.0941C59.0318 32.8416 58.6855 33.642 58.1113 34.2669C57.6786 34.7079 57.1583 35.0533 56.5839 35.2809C56.0094 35.5084 55.3937 35.613 54.7764 35.5879C53.5144 35.5708 52.3098 35.0575 51.4234 34.159C50.537 33.2605 50.04 32.0491 50.04 30.787C50.04 29.5248 50.537 28.3135 51.4234 27.415C52.3098 26.5165 53.5144 26.0032 54.7764 25.9861C55.9886 25.9702 57.1581 26.4334 58.0308 27.2749L59.3035 26.0022C58.708 25.4127 58.0009 24.948 57.2235 24.6354C56.4461 24.3228 55.6142 24.1685 54.7764 24.1817C53.9009 24.1689 53.0316 24.3304 52.219 24.6566C51.4064 24.9828 50.6668 25.4673 50.0432 26.082C49.4196 26.6966 48.9243 27.4291 48.5863 28.2368C48.2483 29.0445 48.0742 29.9114 48.0742 30.787C48.0742 31.6626 48.2483 32.5295 48.5863 33.3372C48.9243 34.1449 49.4196 34.8774 50.0432 35.492C50.6668 36.1066 51.4064 36.5911 52.219 36.9174C53.0316 37.2436 53.9009 37.405 54.7764 37.3923C55.6318 37.4278 56.4851 37.2809 57.2794 36.9615C58.0738 36.6421 58.7912 36.1574 59.384 35.5396C60.4364 34.3908 60.9973 32.8758 60.9468 31.3187C60.9509 30.9405 60.9185 30.5629 60.85 30.191H54.7764ZM100.085 31.5925C99.8291 30.8221 99.3425 30.1491 98.6911 29.6649C98.0397 29.1807 97.255 28.9087 96.4437 28.886C95.8972 28.8894 95.3571 29.0035 94.856 29.2216C94.3549 29.4396 93.9033 29.757 93.5283 30.1546C93.1534 30.5521 92.8629 31.0215 92.6745 31.5345C92.4861 32.0475 92.4037 32.5934 92.4323 33.1391C92.42 33.6983 92.5205 34.2542 92.7278 34.7737C92.9352 35.2931 93.2451 35.7655 93.6391 36.1625C94.0331 36.5595 94.503 36.873 95.0209 37.0843C95.5388 37.2956 96.0939 37.4003 96.6532 37.3923C97.3538 37.3962 98.0445 37.226 98.6631 36.897C99.2817 36.568 99.8089 36.0905 100.197 35.5074L98.7475 34.5408C98.5303 34.9015 98.223 35.1996 97.8559 35.4058C97.4887 35.6119 97.0743 35.7191 96.6532 35.7168C96.2199 35.7334 95.7916 35.6193 95.4239 35.3895C95.0562 35.1597 94.766 34.8247 94.591 34.428L100.278 32.0759L100.085 31.5925ZM94.285 33.0103C94.2649 32.7007 94.3069 32.3903 94.4083 32.0971C94.5097 31.804 94.6685 31.534 94.8755 31.3029C95.0825 31.0719 95.3335 30.8845 95.6139 30.7516C95.8942 30.6188 96.1982 30.5432 96.5081 30.5293C96.8308 30.5081 97.1526 30.5823 97.4333 30.7427C97.7141 30.9032 97.9414 31.1427 98.087 31.4315L94.285 33.0103ZM89.6612 37.1345H91.53V24.6329H89.6612V37.1345ZM86.6002 29.8365H86.5358C86.2517 29.5278 85.9049 29.2833 85.5187 29.1194C85.1325 28.9555 84.7158 28.8759 84.2964 28.886C83.1997 28.9327 82.1634 29.4012 81.4039 30.1937C80.6444 30.9862 80.2204 32.0414 80.2204 33.1391C80.2204 34.2368 80.6444 35.2921 81.4039 36.0846C82.1634 36.8771 83.1997 37.3456 84.2964 37.3923C84.7175 37.4035 85.1359 37.3228 85.5227 37.1559C85.9094 36.989 86.2551 36.7398 86.5358 36.4257H86.6002V37.0379C86.6002 38.6651 85.7303 39.535 84.3286 39.535C83.8614 39.5238 83.4082 39.3738 83.0266 39.1041C82.6451 38.8344 82.3524 38.4572 82.186 38.0206L80.5588 38.6973C80.8655 39.444 81.3881 40.082 82.0597 40.5298C82.7314 40.9776 83.5214 41.2146 84.3286 41.2105C86.5197 41.2105 88.3724 39.9217 88.3724 36.7801V29.1437H86.6002V29.8365ZM84.4576 35.7168C83.8116 35.662 83.2098 35.3667 82.7712 34.8894C82.3326 34.412 82.0892 33.7874 82.0892 33.1391C82.0892 32.4909 82.3326 31.8663 82.7712 31.3889C83.2098 30.9115 83.8116 30.6163 84.4576 30.5615C84.7789 30.5772 85.0938 30.6574 85.3835 30.7974C85.6732 30.9374 85.9318 31.1343 86.1437 31.3763C86.3557 31.6183 86.5168 31.9006 86.6173 32.2062C86.7179 32.5118 86.7559 32.8346 86.7291 33.1552C86.7542 33.4738 86.7148 33.7942 86.6133 34.0973C86.5117 34.4003 86.35 34.6798 86.138 34.9189C85.9259 35.1581 85.6678 35.352 85.3791 35.4891C85.0903 35.6262 84.7769 35.7036 84.4576 35.7168ZM108.839 24.6331H104.367V37.1345H106.233V32.3981H108.839C109.366 32.427 109.894 32.348 110.391 32.166C110.887 31.984 111.341 31.7027 111.725 31.3393C112.108 30.9759 112.414 30.5381 112.623 30.0526C112.832 29.5671 112.94 29.0441 112.94 28.5156C112.94 27.987 112.832 27.464 112.623 26.9785C112.414 26.493 112.108 26.0552 111.725 25.6919C111.341 25.3285 110.887 25.0472 110.391 24.8652C109.894 24.6831 109.366 24.6042 108.839 24.6331ZM108.887 30.6583H106.233V26.373H108.887C109.172 26.3671 109.455 26.4181 109.72 26.5232C109.986 26.6282 110.227 26.7851 110.431 26.9846C110.635 27.1842 110.796 27.4224 110.907 27.6853C111.017 27.9482 111.074 28.2305 111.074 28.5156C111.074 28.8008 111.017 29.0831 110.907 29.346C110.796 29.6089 110.635 29.8471 110.431 30.0467C110.227 30.2462 109.986 30.4031 109.72 30.5081C109.455 30.6131 109.172 30.6642 108.887 30.6583ZM120.418 28.863C119.737 28.8232 119.06 28.9831 118.468 29.3231C117.877 29.6631 117.398 30.1684 117.089 30.7769L118.746 31.4685C118.91 31.1665 119.159 30.9189 119.462 30.756C119.764 30.5932 120.108 30.5222 120.451 30.5517C120.924 30.5055 121.396 30.6488 121.764 30.9503C122.132 31.2518 122.365 31.6868 122.413 32.16V32.2887C121.814 31.9704 121.145 31.8046 120.467 31.8062C118.681 31.8062 116.864 32.7873 116.864 34.6208C116.881 35.0072 116.976 35.3862 117.143 35.7353C117.309 36.0843 117.544 36.3964 117.834 36.6529C118.123 36.9094 118.462 37.1051 118.828 37.2285C119.195 37.3518 119.582 37.4003 119.968 37.371C120.438 37.3986 120.907 37.2998 121.325 37.0849C121.744 36.8699 122.097 36.5466 122.348 36.1487H122.413V37.1137H124.214V32.3209C124.214 30.1014 122.557 28.863 120.418 28.863ZM120.193 35.7144C119.582 35.7144 118.73 35.4089 118.73 34.6529C118.73 33.688 119.791 33.318 120.708 33.318C121.303 33.3021 121.892 33.4466 122.413 33.7362C122.344 34.2784 122.082 34.7775 121.674 35.1412C121.266 35.5048 120.74 35.7084 120.193 35.7144ZM130.776 29.1364L128.637 34.5564H128.573L126.353 29.1364H124.343L127.672 36.7116L125.774 40.9254H127.72L132.851 29.1364H130.776ZM113.969 37.1345H115.835V24.6331H113.969V37.1345Z" fill="white"/>
<path d="M17.4664 14.4068C17.1385 14.7989 16.9729 15.3015 17.0036 15.8117V37.9278C16.9729 38.438 17.1384 38.9407 17.4664 39.3327L17.5404 39.4048L29.9294 27.0159V26.7236L17.5404 14.3342L17.4664 14.4068Z" fill="url(#paint0_linear_972_18)"/>
<path d="M34.0588 31.1471L29.9294 27.0157V26.7234L34.0598 22.593L34.1529 22.6461L39.0457 25.4262C40.4433 26.2202 40.4433 27.5194 39.0457 28.3139L34.1529 31.094L34.0588 31.1471Z" fill="url(#paint1_linear_972_18)"/>
<path d="M34.1529 31.0935L29.9294 26.8696L17.4664 39.3325C17.7512 39.5837 18.1149 39.7273 18.4944 39.7385C18.8739 39.7497 19.2454 39.6278 19.5445 39.3939L34.1529 31.0935Z" fill="url(#paint2_linear_972_18)"/>
<path d="M34.1529 22.6457L19.5445 14.3453C19.2454 14.1114 18.8739 13.9895 18.4944 14.0007C18.1149 14.0119 17.7512 14.1556 17.4664 14.4067L29.9294 26.8697L34.1529 22.6457Z" fill="url(#paint3_linear_972_18)"/>
<path opacity="0.2" d="M34.0598 31.0005L19.5445 39.2478C19.2569 39.4667 18.906 39.5862 18.5445 39.5881C18.1831 39.59 17.8308 39.4743 17.5409 39.2585L17.4664 39.333L17.5404 39.4051L17.5409 39.4046C17.8308 39.6206 18.1831 39.7363 18.5445 39.7344C18.906 39.7325 19.257 39.6129 19.5445 39.3939L34.1529 31.0935L34.0598 31.0005Z" fill="black"/>
<path opacity="0.12" d="M17.4664 39.1871C17.1385 38.795 16.973 38.2924 17.0036 37.7822V37.9283C16.9729 38.4385 17.1385 38.9411 17.4664 39.3332L17.5409 39.2587L17.4664 39.1871Z" fill="black"/>
<path opacity="0.12" d="M39.0457 28.1674L34.0598 31.0006L34.1529 31.0936L39.0457 28.3135C39.3335 28.1886 39.5826 27.9888 39.767 27.735C39.9513 27.4811 40.0643 27.1825 40.094 26.8701C40.0322 27.153 39.9052 27.4175 39.7232 27.6427C39.5412 27.8679 39.3093 28.0476 39.0457 28.1674Z" fill="black"/>
<path opacity="0.25" d="M19.5445 14.492L39.0457 25.572C39.3094 25.6918 39.5414 25.8716 39.7234 26.0969C39.9054 26.3222 40.0323 26.5868 40.094 26.8698C40.0645 26.5573 39.9516 26.2585 39.7673 26.0046C39.5829 25.7506 39.3337 25.5507 39.0457 25.4259L19.5445 14.3459C18.1469 13.5518 17.0036 14.2114 17.0036 15.8122V15.9583C17.0036 14.3576 18.1469 13.698 19.5445 14.492Z" fill="white"/>
<defs>
<linearGradient id="paint0_linear_972_18" x1="28.8308" y1="15.5785" x2="12.0484" y2="32.3609" gradientUnits="userSpaceOnUse">
<stop stop-color="#00A0FF"/>
<stop offset="0.00657" stop-color="#00A1FF"/>
<stop offset="0.2601" stop-color="#00BEFF"/>
<stop offset="0.5122" stop-color="#00D2FF"/>
<stop offset="0.7604" stop-color="#00DFFF"/>
<stop offset="1" stop-color="#00E3FF"/>
</linearGradient>
<linearGradient id="paint1_linear_972_18" x1="40.8654" y1="26.8701" x2="16.6685" y2="26.8701" gradientUnits="userSpaceOnUse">
<stop stop-color="#FFE000"/>
<stop offset="0.4087" stop-color="#FFBD00"/>
<stop offset="0.7754" stop-color="#FFA500"/>
<stop offset="1" stop-color="#FF9C00"/>
</linearGradient>
<linearGradient id="paint2_linear_972_18" x1="31.858" y1="29.1647" x2="9.0997" y2="51.923" gradientUnits="userSpaceOnUse">
<stop stop-color="#FF3A44"/>
<stop offset="1" stop-color="#C31162"/>
</linearGradient>
<linearGradient id="paint3_linear_972_18" x1="14.3284" y1="7.04489" x2="24.4909" y2="17.2074" gradientUnits="userSpaceOnUse">
<stop stop-color="#32A071"/>
<stop offset="0.0685" stop-color="#2DA771"/>
<stop offset="0.4762" stop-color="#15CF74"/>
<stop offset="0.8009" stop-color="#06E775"/>
<stop offset="1" stop-color="#00F076"/>
</linearGradient>
</defs>
</svg>
