<svg width="316" height="56" viewBox="0 0 316 56" fill="none" xmlns="http://www.w3.org/2000/svg">
<rect width="150" height="56" rx="8" fill="black"/>
<path d="M54.4495 17.3776C54.4677 17.7446 54.411 18.1114 54.2829 18.4557C54.1548 18.8 53.9579 19.1147 53.7043 19.3805C53.4201 19.6753 53.0769 19.9067 52.6971 20.0597C52.3172 20.2127 51.9094 20.2837 51.5002 20.2682C51.0884 20.2719 50.6801 20.1932 50.2991 20.0368C49.9182 19.8805 49.5724 19.6495 49.2819 19.3575C48.9915 19.0656 48.7624 18.7185 48.6081 18.3367C48.4537 17.9549 48.3772 17.5462 48.3831 17.1344C48.3773 16.7227 48.4538 16.3139 48.6082 15.9321C48.7625 15.5503 48.9916 15.2032 49.282 14.9112C49.5724 14.6192 49.9182 14.3882 50.2992 14.2318C50.6801 14.0753 51.0884 13.9965 51.5002 14.0001C51.9236 13.9988 52.3427 14.0844 52.7317 14.2516C53.093 14.3981 53.4146 14.6278 53.6702 14.922L53.1428 15.4498C52.9418 15.2133 52.6892 15.0261 52.4044 14.9026C52.1196 14.7792 51.8103 14.7228 51.5002 14.7379C51.1881 14.7363 50.879 14.7977 50.5912 14.9184C50.3034 15.0391 50.0429 15.2167 49.8253 15.4404C49.6078 15.6642 49.4376 15.9295 49.3251 16.2206C49.2125 16.5117 49.1598 16.8225 49.1702 17.1344C49.1628 17.6016 49.2943 18.0605 49.5479 18.4529C49.8016 18.8453 50.1662 19.1535 50.5953 19.3384C51.0243 19.5234 51.4987 19.5767 51.9582 19.4917C52.4176 19.4067 52.8415 19.1872 53.176 18.861C53.4839 18.5293 53.6624 18.0979 53.6789 17.6456H51.5002V16.9249H54.4075C54.435 17.0743 54.4491 17.2258 54.4495 17.3776Z" fill="white"/>
<path d="M59.0588 14.8717H56.3264V16.774H58.7903V17.4948H56.3264V19.3971H59.0588V20.1344H55.5559V14.1344H59.0588V14.8717Z" fill="white"/>
<path d="M62.3098 20.1344H61.5383V14.8717H59.8625V14.1344H63.9856V14.8717H62.3098V20.1344Z" fill="white"/>
<path d="M66.969 20.1344V14.1344H67.7395V20.1344H66.969Z" fill="white"/>
<path d="M71.1594 20.1344H70.3879V14.8717H68.7122V14.1344H72.8352V14.8717H71.1594V20.1344Z" fill="white"/>
<path d="M80.6404 19.359C80.0564 19.9413 79.2654 20.2682 78.4407 20.2682C77.6161 20.2682 76.825 19.9413 76.241 19.359C75.9521 19.0664 75.725 18.7187 75.5732 18.3365C75.4213 17.9543 75.3479 17.5455 75.3572 17.1344C75.3479 16.7233 75.4213 16.3145 75.5732 15.9323C75.725 15.5502 75.9521 15.2024 76.241 14.9098C76.5297 14.6211 76.8725 14.3921 77.2497 14.236C77.627 14.0799 78.0313 13.9998 78.4396 14.0001C78.8479 14.0005 79.2521 14.0814 79.629 14.2381C80.006 14.3949 80.3484 14.6245 80.6365 14.9137C80.9257 15.2056 81.1532 15.5525 81.3057 15.934C81.4582 16.3155 81.5325 16.7237 81.5242 17.1344C81.5333 17.5455 81.4598 17.9542 81.3079 18.3363C81.1561 18.7185 80.9291 19.0662 80.6404 19.359ZM76.8103 18.8566C77.2429 19.2884 77.8291 19.5309 78.4402 19.5309C79.0514 19.5309 79.6376 19.2884 80.0701 18.8566C80.2919 18.6295 80.4654 18.3598 80.58 18.0638C80.6947 17.7678 80.7481 17.4517 80.7371 17.1344C80.7481 16.8172 80.6947 16.501 80.58 16.205C80.4654 15.909 80.2919 15.6393 80.0701 15.4122C79.6376 14.9804 79.0514 14.7379 78.4402 14.7379C77.8291 14.7379 77.2429 14.9804 76.8103 15.4122C76.5888 15.6395 76.4157 15.9092 76.3012 16.2052C76.1867 16.5012 76.1334 16.8173 76.1443 17.1344C76.1334 17.4516 76.1867 17.7677 76.3012 18.0636C76.4157 18.3596 76.5888 18.6294 76.8103 18.8566Z" fill="white"/>
<path d="M82.6062 20.1344V14.1344H83.5447L86.4607 18.8019H86.4939L86.4607 17.6456V14.1344H87.2322V20.1344H86.4275L83.3767 15.2408H83.3435L83.3767 16.3971V20.1344H82.6062Z" fill="white"/>
<path d="M54.4495 17.3776C54.4677 17.7446 54.411 18.1114 54.2829 18.4557C54.1548 18.8 53.9579 19.1147 53.7043 19.3805C53.4201 19.6753 53.0769 19.9067 52.6971 20.0597C52.3172 20.2127 51.9094 20.2837 51.5002 20.2682C51.0884 20.2719 50.6801 20.1932 50.2991 20.0368C49.9182 19.8805 49.5724 19.6495 49.2819 19.3575C48.9915 19.0656 48.7624 18.7185 48.6081 18.3367C48.4537 17.9549 48.3772 17.5462 48.3831 17.1344C48.3773 16.7227 48.4538 16.3139 48.6082 15.9321C48.7625 15.5503 48.9916 15.2032 49.282 14.9112C49.5724 14.6192 49.9182 14.3882 50.2992 14.2318C50.6801 14.0753 51.0884 13.9965 51.5002 14.0001C51.9236 13.9988 52.3427 14.0844 52.7317 14.2516C53.093 14.3981 53.4146 14.6278 53.6702 14.922L53.1428 15.4498C52.9418 15.2133 52.6892 15.0261 52.4044 14.9026C52.1196 14.7792 51.8103 14.7228 51.5002 14.7379C51.1881 14.7363 50.879 14.7977 50.5912 14.9184C50.3034 15.0391 50.0429 15.2167 49.8253 15.4404C49.6078 15.6642 49.4376 15.9295 49.3251 16.2206C49.2125 16.5117 49.1598 16.8225 49.1702 17.1344C49.1628 17.6016 49.2943 18.0605 49.5479 18.4529C49.8016 18.8453 50.1662 19.1535 50.5953 19.3384C51.0243 19.5234 51.4987 19.5767 51.9582 19.4917C52.4176 19.4067 52.8415 19.1872 53.176 18.861C53.4839 18.5293 53.6624 18.0979 53.6789 17.6456H51.5002V16.9249H54.4075C54.435 17.0743 54.4491 17.2258 54.4495 17.3776Z" stroke="white" stroke-width="0.2" stroke-miterlimit="10"/>
<path d="M59.0588 14.8717H56.3264V16.774H58.7903V17.4948H56.3264V19.3971H59.0588V20.1344H55.5559V14.1344H59.0588V14.8717Z" stroke="white" stroke-width="0.2" stroke-miterlimit="10"/>
<path d="M62.3098 20.1344H61.5383V14.8717H59.8625V14.1344H63.9856V14.8717H62.3098V20.1344Z" stroke="white" stroke-width="0.2" stroke-miterlimit="10"/>
<path d="M66.969 20.1344V14.1344H67.7395V20.1344H66.969Z" stroke="white" stroke-width="0.2" stroke-miterlimit="10"/>
<path d="M71.1594 20.1344H70.3879V14.8717H68.7122V14.1344H72.8352V14.8717H71.1594V20.1344Z" stroke="white" stroke-width="0.2" stroke-miterlimit="10"/>
<path d="M80.6404 19.359C80.0564 19.9413 79.2654 20.2682 78.4407 20.2682C77.6161 20.2682 76.825 19.9413 76.241 19.359C75.9521 19.0664 75.725 18.7187 75.5732 18.3365C75.4213 17.9543 75.3479 17.5455 75.3572 17.1344C75.3479 16.7233 75.4213 16.3145 75.5732 15.9323C75.725 15.5502 75.9521 15.2024 76.241 14.9098C76.5297 14.6211 76.8725 14.3921 77.2497 14.236C77.627 14.0799 78.0313 13.9998 78.4396 14.0001C78.8479 14.0005 79.2521 14.0814 79.629 14.2381C80.006 14.3949 80.3484 14.6245 80.6365 14.9137C80.9257 15.2056 81.1532 15.5525 81.3057 15.934C81.4582 16.3155 81.5325 16.7237 81.5242 17.1344C81.5333 17.5455 81.4598 17.9542 81.3079 18.3363C81.1561 18.7185 80.9291 19.0662 80.6404 19.359ZM76.8103 18.8566C77.2429 19.2884 77.8291 19.5309 78.4402 19.5309C79.0514 19.5309 79.6376 19.2884 80.0701 18.8566C80.2919 18.6295 80.4654 18.3598 80.58 18.0638C80.6947 17.7678 80.7481 17.4517 80.7371 17.1344C80.7481 16.8172 80.6947 16.501 80.58 16.205C80.4654 15.909 80.2919 15.6393 80.0701 15.4122C79.6376 14.9804 79.0514 14.7379 78.4402 14.7379C77.8291 14.7379 77.2429 14.9804 76.8103 15.4122C76.5888 15.6395 76.4157 15.9092 76.3012 16.2052C76.1867 16.5012 76.1334 16.8173 76.1443 17.1344C76.1334 17.4516 76.1867 17.7677 76.3012 18.0636C76.4157 18.3596 76.5888 18.6294 76.8103 18.8566Z" stroke="white" stroke-width="0.2" stroke-miterlimit="10"/>
<path d="M82.6062 20.1344V14.1344H83.5447L86.4607 18.8019H86.4939L86.4607 17.6456V14.1344H87.2322V20.1344H86.4275L83.3767 15.2408H83.3435L83.3767 16.3971V20.1344H82.6062Z" stroke="white" stroke-width="0.2" stroke-miterlimit="10"/>
<path d="M75.1686 28.8857C74.3281 28.8889 73.5074 29.1411 72.81 29.6104C72.1127 30.0796 71.5701 30.745 71.2507 31.5225C70.9312 32.2999 70.8493 33.1546 71.0152 33.9785C71.1812 34.8025 71.5875 35.5588 72.183 36.1521C72.7784 36.7453 73.5363 37.1487 74.3609 37.3115C75.1855 37.4743 76.0399 37.3891 76.8161 37.0668C77.5923 36.7444 78.2556 36.1992 78.7222 35.5001C79.1889 34.801 79.4379 33.9794 79.4379 33.1388C79.4461 32.5767 79.3412 32.0186 79.1294 31.4978C78.9176 30.9769 78.6031 30.5041 78.2048 30.1073C77.8065 29.7105 77.3324 29.3978 76.8108 29.188C76.2892 28.9781 75.7307 28.8753 75.1686 28.8857ZM75.1686 35.7165C74.651 35.7534 74.1342 35.6337 73.6856 35.3728C73.237 35.1119 72.8774 34.722 72.6535 34.2538C72.4296 33.7857 72.3518 33.2609 72.4303 32.748C72.5088 32.235 72.74 31.7576 73.0936 31.3778C73.4473 30.998 73.9071 30.7335 74.4131 30.6187C74.9192 30.5039 75.4481 30.5442 75.931 30.7342C76.4139 30.9242 76.8284 31.2552 77.1206 31.6841C77.4127 32.113 77.569 32.6199 77.569 33.1388C77.5847 33.4667 77.5347 33.7943 77.4218 34.1026C77.309 34.4108 77.1356 34.6933 76.9119 34.9335C76.6883 35.1737 76.4188 35.3667 76.1194 35.5012C75.82 35.6357 75.4967 35.7089 75.1686 35.7165ZM65.8552 28.8857C65.0147 28.8889 64.1939 29.141 63.4966 29.6103C62.7993 30.0796 62.2566 30.7449 61.9372 31.5224C61.6177 32.2998 61.5358 33.1545 61.7017 33.9785C61.8676 34.8025 62.274 35.5588 62.8694 36.152C63.4649 36.7452 64.2228 37.1487 65.0474 37.3115C65.872 37.4743 66.7263 37.3892 67.5026 37.0668C68.2788 36.7444 68.9421 36.1992 69.4087 35.5001C69.8754 34.801 70.1244 33.9794 70.1244 33.1388C70.1326 32.5767 70.0277 32.0186 69.8159 31.4978C69.6041 30.977 69.2897 30.5041 68.8914 30.1073C68.493 29.7105 68.019 29.3979 67.4974 29.188C66.9758 28.9781 66.4173 28.8754 65.8552 28.8857ZM65.8552 35.7165C65.3376 35.7534 64.8208 35.6337 64.3722 35.3728C63.9236 35.1119 63.564 34.722 63.3401 34.2538C63.1162 33.7857 63.0384 33.2609 63.1169 32.748C63.1954 32.235 63.4266 31.7576 63.7802 31.3778C64.1339 30.998 64.5937 30.7335 65.0997 30.6187C65.6058 30.5039 66.1347 30.5442 66.6176 30.7342C67.1005 30.9242 67.515 31.2552 67.8072 31.6841C68.0993 32.113 68.2556 32.6199 68.2556 33.1388C68.2713 33.4667 68.2213 33.7944 68.1084 34.1026C67.9956 34.4108 67.8222 34.6933 67.5986 34.9335C67.3749 35.1737 67.1054 35.3667 66.806 35.5012C66.5066 35.6357 66.1833 35.7089 65.8552 35.7165ZM54.7764 30.1907V31.995H59.0941C59.0318 32.8413 58.6855 33.6418 58.1113 34.2666C57.6786 34.7077 57.1583 35.0531 56.5839 35.2806C56.0094 35.5082 55.3937 35.6127 54.7764 35.5876C53.5144 35.5706 52.3098 35.0572 51.4234 34.1587C50.537 33.2603 50.04 32.0489 50.04 30.7867C50.04 29.5246 50.537 28.3132 51.4234 27.4147C52.3098 26.5163 53.5144 26.0029 54.7764 25.9858C55.9886 25.97 57.1581 26.4331 58.0308 27.2746L59.3035 26.0019C58.708 25.4125 58.0009 24.9478 57.2235 24.6352C56.4461 24.3226 55.6142 24.1683 54.7764 24.1814C53.9009 24.1687 53.0316 24.3301 52.219 24.6564C51.4064 24.9826 50.6668 25.4671 50.0432 26.0817C49.4196 26.6963 48.9243 27.4288 48.5863 28.2365C48.2483 29.0443 48.0742 29.9111 48.0742 30.7867C48.0742 31.6623 48.2483 32.5292 48.5863 33.3369C48.9243 34.1447 49.4196 34.8771 50.0432 35.4918C50.6668 36.1064 51.4064 36.5909 52.219 36.9171C53.0316 37.2434 53.9009 37.4048 54.7764 37.392C55.6318 37.4275 56.4851 37.2807 57.2794 36.9613C58.0738 36.6418 58.7912 36.1571 59.384 35.5393C60.4364 34.3906 60.9973 32.8756 60.9468 31.3184C60.9509 30.9403 60.9185 30.5626 60.85 30.1907H54.7764ZM100.085 31.5922C99.8291 30.8219 99.3425 30.1489 98.6911 29.6646C98.0397 29.1804 97.255 28.9085 96.4437 28.8857C95.8972 28.8891 95.3571 29.0033 94.856 29.2213C94.3549 29.4394 93.9033 29.7568 93.5283 30.1543C93.1534 30.5519 92.8629 31.0213 92.6745 31.5343C92.4861 32.0473 92.4037 32.5931 92.4323 33.1388C92.42 33.698 92.5205 34.2539 92.7278 34.7734C92.9352 35.2929 93.2451 35.7652 93.6391 36.1622C94.0331 36.5592 94.503 36.8727 95.0209 37.084C95.5388 37.2953 96.0939 37.4001 96.6532 37.392C97.3538 37.3959 98.0445 37.2257 98.6631 36.8967C99.2817 36.5677 99.8089 36.0902 100.197 35.5071L98.7475 34.5405C98.5303 34.9013 98.223 35.1993 97.8559 35.4055C97.4887 35.6117 97.0743 35.7189 96.6532 35.7165C96.2199 35.7331 95.7916 35.6191 95.4239 35.3893C95.0562 35.1595 94.766 34.8245 94.591 34.4277L100.278 32.0756L100.085 31.5922ZM94.285 33.01C94.2649 32.7005 94.3069 32.39 94.4083 32.0969C94.5097 31.8037 94.6685 31.5337 94.8755 31.3027C95.0825 31.0717 95.3335 30.8842 95.6139 30.7514C95.8942 30.6186 96.1982 30.543 96.5081 30.529C96.8308 30.5078 97.1526 30.582 97.4333 30.7425C97.7141 30.9029 97.9414 31.1425 98.087 31.4312L94.285 33.01ZM89.6612 37.1342H91.53V24.6326H89.6612V37.1342ZM86.6002 29.8362H86.5358C86.2517 29.5276 85.9049 29.2831 85.5187 29.1192C85.1325 28.9552 84.7158 28.8757 84.2964 28.8857C83.1997 28.9324 82.1634 29.4009 81.4039 30.1934C80.6444 30.9859 80.2204 32.0412 80.2204 33.1389C80.2204 34.2366 80.6444 35.2918 81.4039 36.0844C82.1634 36.8769 83.1997 37.3454 84.2964 37.392C84.7175 37.4032 85.1359 37.3226 85.5227 37.1556C85.9094 36.9887 86.2551 36.7395 86.5358 36.4254H86.6002V37.0376C86.6002 38.6648 85.7303 39.5347 84.3286 39.5347C83.8614 39.5236 83.4082 39.3736 83.0266 39.1039C82.6451 38.8342 82.3524 38.457 82.186 38.0203L80.5588 38.697C80.8655 39.4437 81.3881 40.0818 82.0597 40.5296C82.7314 40.9773 83.5214 41.2143 84.3286 41.2102C86.5197 41.2102 88.3724 39.9214 88.3724 36.7798V29.1434H86.6002V29.8362ZM84.4576 35.7165C83.8116 35.6618 83.2098 35.3665 82.7712 34.8891C82.3326 34.4118 82.0892 33.7871 82.0892 33.1389C82.0892 32.4906 82.3326 31.866 82.7712 31.3887C83.2098 30.9113 83.8116 30.616 84.4576 30.5612C84.7789 30.5769 85.0938 30.6572 85.3835 30.7971C85.6732 30.9371 85.9318 31.134 86.1437 31.3761C86.3557 31.6181 86.5168 31.9003 86.6173 32.206C86.7179 32.5116 86.7559 32.8343 86.7291 33.1549C86.7542 33.4736 86.7148 33.794 86.6133 34.097C86.5117 34.4001 86.35 34.6796 86.138 34.9187C85.9259 35.1578 85.6678 35.3518 85.3791 35.4888C85.0903 35.6259 84.7769 35.7034 84.4576 35.7165ZM108.839 24.6328H104.367V37.1342H106.233V32.3978H108.839C109.366 32.4268 109.894 32.3478 110.391 32.1658C110.887 31.9837 111.341 31.7024 111.725 31.3391C112.108 30.9757 112.414 30.5379 112.623 30.0524C112.832 29.5669 112.94 29.0439 112.94 28.5153C112.94 27.9868 112.832 27.4638 112.623 26.9783C112.414 26.4928 112.108 26.055 111.725 25.6916C111.341 25.3283 110.887 25.047 110.391 24.8649C109.894 24.6829 109.366 24.6039 108.839 24.6328ZM108.887 30.658H106.233V26.3727H108.887C109.172 26.3668 109.455 26.4179 109.72 26.5229C109.986 26.6279 110.227 26.7848 110.431 26.9844C110.635 27.1839 110.796 27.4221 110.907 27.685C111.017 27.9479 111.074 28.2302 111.074 28.5154C111.074 28.8006 111.017 29.0829 110.907 29.3458C110.796 29.6087 110.635 29.8469 110.431 30.0464C110.227 30.246 109.986 30.4028 109.72 30.5079C109.455 30.6129 109.172 30.6639 108.887 30.658ZM120.418 28.8627C119.737 28.823 119.06 28.9829 118.468 29.3229C117.877 29.6629 117.398 30.1681 117.089 30.7766L118.746 31.4682C118.91 31.1662 119.159 30.9186 119.462 30.7558C119.764 30.593 120.108 30.5219 120.451 30.5514C120.924 30.5052 121.396 30.6486 121.764 30.9501C122.132 31.2515 122.365 31.6865 122.413 32.1597V32.2884C121.814 31.9701 121.145 31.8044 120.467 31.8059C118.681 31.8059 116.864 32.787 116.864 34.6205C116.881 35.0069 116.976 35.3859 117.143 35.735C117.309 36.0841 117.544 36.3961 117.834 36.6526C118.123 36.9092 118.462 37.1049 118.828 37.2282C119.195 37.3516 119.582 37.4001 119.968 37.3707C120.438 37.3984 120.907 37.2996 121.325 37.0846C121.744 36.8696 122.097 36.5464 122.348 36.1484H122.413V37.1134H124.214V32.3206C124.214 30.1011 122.557 28.8627 120.418 28.8627ZM120.193 35.7141C119.582 35.7141 118.73 35.4086 118.73 34.6526C118.73 33.6877 119.791 33.3177 120.708 33.3177C121.303 33.3019 121.892 33.4463 122.413 33.7359C122.344 34.2782 122.082 34.7773 121.674 35.1409C121.266 35.5046 120.74 35.7082 120.193 35.7141ZM130.776 29.1361L128.637 34.5561H128.573L126.353 29.1361H124.343L127.672 36.7113L125.774 40.9251H127.72L132.851 29.1361H130.776ZM113.969 37.1342H115.835V24.6328H113.969V37.1342Z" fill="white"/>
<path d="M17.4664 14.4067C17.1385 14.7988 16.9729 15.3014 17.0036 15.8116V37.9277C16.9729 38.4379 17.1384 38.9406 17.4664 39.3326L17.5404 39.4047L29.9294 27.0158V26.7235L17.5404 14.3341L17.4664 14.4067Z" fill="url(#paint0_linear_1010_946)"/>
<path d="M34.0591 31.1469L29.9297 27.0155V26.7232L34.0601 22.5928L34.1532 22.6459L39.046 25.426C40.4436 26.22 40.4436 27.5192 39.046 28.3137L34.1532 31.0938L34.0591 31.1469Z" fill="url(#paint1_linear_1010_946)"/>
<path d="M34.1513 31.094L29.9278 26.8701L17.4648 39.333C17.7496 39.5842 18.1133 39.7278 18.4928 39.739C18.8723 39.7502 19.2438 39.6283 19.5429 39.3944L34.1513 31.094Z" fill="url(#paint2_linear_1010_946)"/>
<path d="M34.1513 22.6457L19.5429 14.3453C19.2438 14.1114 18.8723 13.9895 18.4928 14.0007C18.1133 14.0119 17.7496 14.1556 17.4648 14.4067L29.9278 26.8697L34.1513 22.6457Z" fill="url(#paint3_linear_1010_946)"/>
<path opacity="0.2" d="M34.0582 31.001L19.5429 39.2483C19.2554 39.4672 18.9044 39.5867 18.5429 39.5886C18.1815 39.5905 17.8293 39.4748 17.5393 39.259L17.4648 39.3335L17.5388 39.4056L17.5393 39.4051C17.8292 39.621 18.1815 39.7368 18.5429 39.7349C18.9044 39.7329 19.2554 39.6134 19.5429 39.3944L34.1513 31.094L34.0582 31.001Z" fill="black"/>
<path opacity="0.12" d="M17.4664 39.187C17.1385 38.7949 16.973 38.2923 17.0036 37.7821V37.9282C16.9729 38.4384 17.1385 38.941 17.4664 39.3331L17.5409 39.2586L17.4664 39.187Z" fill="black"/>
<path opacity="0.12" d="M39.0445 28.1674L34.0586 31.0006L34.1517 31.0936L39.0445 28.3135C39.3323 28.1886 39.5814 27.9888 39.7657 27.735C39.9501 27.4811 40.0631 27.1825 40.0928 26.8701C40.0309 27.153 39.904 27.4175 39.722 27.6427C39.54 27.8679 39.308 28.0476 39.0445 28.1674Z" fill="black"/>
<path opacity="0.25" d="M19.5448 14.4915L39.046 25.5715C39.3097 25.6914 39.5417 25.8711 39.7237 26.0964C39.9057 26.3217 40.0326 26.5863 40.0943 26.8693C40.0648 26.5568 39.9519 26.258 39.7675 26.0041C39.5831 25.7501 39.334 25.5503 39.046 25.4254L19.5448 14.3454C18.1472 13.5513 17.0039 14.2109 17.0039 15.8117V15.9578C17.0039 14.3571 18.1472 13.6975 19.5448 14.4915Z" fill="white"/>
<rect x="166" width="150" height="56" rx="8" fill="black"/>
<path d="M203.084 26.5804C203.096 25.7457 203.337 24.9273 203.785 24.2014C204.232 23.4754 204.873 22.8655 205.646 22.4283C205.154 21.7831 204.507 21.2522 203.754 20.8776C203.001 20.5031 202.163 20.2952 201.307 20.2706C199.482 20.0944 197.713 21.2754 196.782 21.2754C195.834 21.2754 194.402 20.2881 192.86 20.3173C191.863 20.347 190.891 20.6138 190.038 21.0919C189.186 21.5699 188.484 22.2429 187.998 23.0452C185.896 26.3936 187.464 31.3146 189.478 34.0213C190.485 35.3466 191.663 36.8271 193.204 36.7746C194.711 36.717 195.274 35.8901 197.094 35.8901C198.897 35.8901 199.425 36.7746 200.997 36.7412C202.615 36.717 203.635 35.4099 204.607 34.072C205.331 33.1277 205.888 32.084 206.257 30.9795C205.317 30.6138 204.515 30.0016 203.951 29.2193C203.387 28.437 203.085 27.5192 203.084 26.5804Z" fill="white"/>
<path d="M200.115 18.4906C200.997 17.5164 201.432 16.2642 201.326 15C199.979 15.1302 198.734 15.7228 197.84 16.6596C197.403 17.1173 197.068 17.6497 196.855 18.2265C196.641 18.8033 196.554 19.413 196.597 20.021C197.271 20.0274 197.938 19.893 198.547 19.6279C199.156 19.3628 199.692 18.9739 200.115 18.4906Z" fill="white"/>
<path d="M222.142 33.7022H216.997L215.761 37.0587H213.582L218.455 24.6407H220.719L225.593 37.0587H223.376L222.142 33.7022ZM217.53 32.1534H221.608L219.597 26.7061H219.541L217.53 32.1534Z" fill="white"/>
<path d="M236.117 32.5323C236.117 35.3458 234.48 37.1534 232.01 37.1534C231.385 37.1835 230.762 37.0509 230.215 36.7707C229.667 36.4906 229.216 36.0743 228.914 35.5694H228.867V40.0538H226.847V28.0049H228.803V29.5108H228.84C229.156 29.0083 229.614 28.5941 230.166 28.3123C230.718 28.0304 231.342 27.8915 231.973 27.9102C234.471 27.9102 236.117 29.7266 236.117 32.5323ZM234.041 32.5323C234.041 30.6993 233.011 29.4942 231.44 29.4942C229.897 29.4942 228.859 30.7247 228.859 32.5323C228.859 34.3565 229.897 35.5782 231.44 35.5782C233.011 35.5782 234.041 34.3819 234.041 32.5323Z" fill="white"/>
<path d="M246.949 32.5323C246.949 35.3458 245.312 37.1534 242.842 37.1534C242.216 37.1835 241.594 37.0509 241.046 36.7707C240.499 36.4906 240.048 36.0743 239.745 35.5694H239.699V40.0538H237.679V28.0049H239.634V29.5108H239.671C239.987 29.0083 240.446 28.5941 240.998 28.3123C241.549 28.0305 242.174 27.8915 242.805 27.9102C245.302 27.9102 246.949 29.7266 246.949 32.5323ZM244.872 32.5323C244.872 30.6993 243.843 29.4942 242.272 29.4942C240.728 29.4942 239.69 30.7247 239.69 32.5323C239.69 34.3565 240.728 35.5782 242.272 35.5782C243.843 35.5782 244.872 34.3819 244.872 32.5323Z" fill="white"/>
<path d="M254.107 33.5987C254.257 34.8301 255.557 35.6387 257.334 35.6387C259.037 35.6387 260.262 34.8301 260.262 33.7197C260.262 32.7559 259.523 32.1787 257.774 31.7832L256.024 31.3955C253.546 30.8447 252.395 29.7783 252.395 28.0479C252.395 25.9053 254.425 24.4336 257.307 24.4336C260.159 24.4336 262.114 25.9053 262.18 28.0479H260.141C260.019 26.8086 258.905 26.0606 257.278 26.0606C255.651 26.0606 254.537 26.8174 254.537 27.919C254.537 28.7969 255.248 29.3135 256.988 29.709L258.475 30.0449C261.245 30.6474 262.395 31.6709 262.395 33.4873C262.395 35.8105 260.384 37.2656 257.184 37.2656C254.191 37.2656 252.17 35.8447 252.039 33.5986L254.107 33.5987Z" fill="white"/>
<path d="M266.755 25.8624V28.0049H268.626V29.4766H266.755V34.4678C266.755 35.2432 267.13 35.6045 267.952 35.6045C268.174 35.601 268.396 35.5866 268.617 35.5615V37.0244C268.247 37.088 267.871 37.1168 267.495 37.1104C265.502 37.1104 264.725 36.4219 264.725 34.666V29.4766H263.294V28.0049H264.725V25.8624H266.755Z" fill="white"/>
<path d="M269.71 32.5323C269.71 29.6837 271.534 27.8936 274.377 27.8936C277.231 27.8936 279.046 29.6836 279.046 32.5323C279.046 35.3887 277.24 37.171 274.377 37.171C271.516 37.171 269.71 35.3887 269.71 32.5323ZM276.988 32.5323C276.988 30.5782 276.014 29.4249 274.377 29.4249C272.741 29.4249 271.768 30.587 271.768 32.5323C271.768 34.4942 272.741 35.6387 274.377 35.6387C276.014 35.6387 276.988 34.4942 276.988 32.5323Z" fill="white"/>
<path d="M280.711 28.0049H282.638V29.5459H282.684C282.815 29.0646 283.121 28.6393 283.552 28.3414C283.983 28.0435 284.513 27.8913 285.052 27.9102C285.284 27.9094 285.517 27.9327 285.744 27.9795V29.7178C285.45 29.6352 285.143 29.5973 284.836 29.6055C284.543 29.5946 284.25 29.6422 283.978 29.745C283.707 29.8479 283.463 30.0037 283.263 30.2016C283.063 30.3994 282.912 30.6348 282.82 30.8915C282.728 31.1481 282.698 31.42 282.731 31.6885V37.0586H280.711L280.711 28.0049Z" fill="white"/>
<path d="M295.057 34.3995C294.785 36.043 293.046 37.1709 290.82 37.1709C287.957 37.1709 286.18 35.4063 286.18 32.5752C286.18 29.7354 287.966 27.8936 290.735 27.8936C293.457 27.8936 295.17 29.6143 295.17 32.3594V32.9961H288.219V33.1084C288.187 33.4416 288.232 33.7773 288.352 34.0932C288.472 34.409 288.663 34.6978 288.914 34.9403C289.164 35.1829 289.468 35.3736 289.804 35.4999C290.141 35.6262 290.503 35.6852 290.866 35.6729C291.344 35.714 291.823 35.6123 292.232 35.3829C292.642 35.1535 292.96 34.8085 293.139 34.3995L295.057 34.3995ZM288.229 31.6973H293.149C293.167 31.3977 293.117 31.0979 293.004 30.8167C292.89 30.5355 292.714 30.279 292.487 30.0632C292.261 29.8474 291.988 29.6771 291.686 29.5629C291.385 29.4486 291.061 29.393 290.735 29.3995C290.406 29.3977 290.08 29.4558 289.775 29.5705C289.471 29.6853 289.194 29.8544 288.961 30.068C288.728 30.2816 288.544 30.5356 288.418 30.8152C288.292 31.0949 288.228 31.3947 288.229 31.6973Z" fill="white"/>
<path d="M217.277 15.294C217.7 15.266 218.125 15.3249 218.521 15.4663C218.917 15.6078 219.273 15.8282 219.565 16.1119C219.857 16.3955 220.077 16.7352 220.209 17.1065C220.341 17.4777 220.382 17.8713 220.328 18.2588C220.328 20.1651 219.208 21.2608 217.277 21.2608H214.934V15.294H217.277ZM215.941 20.417H217.164C217.467 20.4336 217.769 20.388 218.05 20.2834C218.331 20.1788 218.584 20.0178 218.788 19.8123C218.993 19.6067 219.146 19.3617 219.235 19.0951C219.324 18.8284 219.347 18.5469 219.303 18.271C219.344 17.9962 219.318 17.7164 219.228 17.4517C219.138 17.1871 218.985 16.9441 218.78 16.7401C218.576 16.5362 218.325 16.3764 218.046 16.2722C217.766 16.1679 217.465 16.1218 217.164 16.1372H215.941V20.417Z" fill="white"/>
<path d="M221.466 19.0073C221.435 18.7114 221.472 18.4129 221.574 18.1308C221.676 17.8487 221.841 17.5894 222.058 17.3694C222.276 17.1494 222.541 16.9736 222.836 16.8534C223.132 16.7331 223.451 16.671 223.774 16.671C224.097 16.671 224.417 16.7331 224.713 16.8534C225.008 16.9736 225.273 17.1494 225.49 17.3694C225.708 17.5894 225.873 17.8487 225.975 18.1308C226.077 18.4129 226.113 18.7114 226.083 19.0073C226.114 19.3036 226.078 19.6025 225.976 19.8851C225.874 20.1676 225.709 20.4274 225.492 20.6478C225.274 20.8682 225.009 21.0444 224.714 21.1649C224.418 21.2854 224.098 21.3477 223.774 21.3477C223.451 21.3477 223.131 21.2854 222.835 21.1649C222.539 21.0444 222.274 20.8682 222.057 20.6478C221.839 20.4274 221.675 20.1676 221.573 19.8851C221.471 19.6025 221.435 19.3036 221.466 19.0073ZM225.089 19.0073C225.089 18.0313 224.612 17.4605 223.776 17.4605C222.936 17.4605 222.464 18.0313 222.464 19.0073C222.464 19.9912 222.936 20.5576 223.776 20.5576C224.612 20.5576 225.089 19.9873 225.089 19.0073Z" fill="white"/>
<path d="M232.219 21.2607H231.217L230.205 17.9443H230.129L229.122 21.2607H228.129L226.78 16.7578H227.76L228.636 20.1938H228.709L229.715 16.7578H230.642L231.648 20.1938H231.724L232.597 16.7578H233.563L232.219 21.2607Z" fill="white"/>
<path d="M234.698 16.7578H235.627V17.4731H235.7C235.822 17.2162 236.029 17.0009 236.29 16.8571C236.552 16.7132 236.856 16.6482 237.16 16.6709C237.398 16.6544 237.637 16.6875 237.86 16.7676C238.082 16.8477 238.282 16.9728 238.445 17.1336C238.608 17.2944 238.729 17.4869 238.8 17.6967C238.871 17.9065 238.889 18.1283 238.854 18.3457V21.2607H237.888V18.5689C237.888 17.8452 237.547 17.4854 236.832 17.4854C236.67 17.4784 236.509 17.5037 236.359 17.5596C236.209 17.6154 236.074 17.7004 235.963 17.8088C235.852 17.9172 235.768 18.0464 235.716 18.1875C235.664 18.3286 235.646 18.4784 235.663 18.6265V21.2607H234.698L234.698 16.7578Z" fill="white"/>
<path d="M240.393 15H241.359V21.2607H240.393V15Z" fill="white"/>
<path d="M242.702 19.0073C242.671 18.7114 242.708 18.4128 242.81 18.1307C242.912 17.8487 243.077 17.5893 243.295 17.3693C243.512 17.1493 243.777 16.9736 244.072 16.8533C244.368 16.733 244.687 16.6709 245.011 16.6709C245.334 16.6709 245.653 16.733 245.949 16.8533C246.244 16.9736 246.509 17.1493 246.727 17.3693C246.944 17.5893 247.109 17.8487 247.211 18.1307C247.313 18.4128 247.35 18.7114 247.319 19.0073C247.35 19.3036 247.314 19.6026 247.212 19.8851C247.11 20.1676 246.946 20.4274 246.728 20.6478C246.511 20.8682 246.246 21.0444 245.95 21.1649C245.654 21.2854 245.334 21.3477 245.011 21.3477C244.687 21.3477 244.367 21.2854 244.071 21.1649C243.776 21.0444 243.51 20.8682 243.293 20.6478C243.076 20.4274 242.911 20.1676 242.809 19.8851C242.707 19.6026 242.671 19.3036 242.702 19.0073ZM246.325 19.0073C246.325 18.0313 245.848 17.4605 245.012 17.4605C244.172 17.4605 243.7 18.0313 243.7 19.0073C243.7 19.9912 244.172 20.5576 245.012 20.5576C245.848 20.5576 246.325 19.9873 246.325 19.0073Z" fill="white"/>
<path d="M248.336 19.9873C248.336 19.1768 248.992 18.7095 250.156 18.6431L251.482 18.5728V18.1841C251.482 17.7085 251.14 17.44 250.48 17.44C249.941 17.44 249.567 17.6221 249.46 17.9404H248.525C248.624 17.167 249.414 16.6709 250.525 16.6709C251.752 16.6709 252.444 17.2329 252.444 18.1841V21.2608H251.514V20.6279H251.438C251.282 20.8549 251.065 21.04 250.806 21.1642C250.548 21.2884 250.259 21.3473 249.967 21.3349C249.762 21.3546 249.554 21.3344 249.358 21.2757C249.161 21.217 248.98 21.1211 248.827 20.9942C248.673 20.8672 248.55 20.712 248.465 20.5386C248.381 20.3652 248.337 20.1774 248.336 19.9873ZM251.482 19.6025V19.2261L250.287 19.2964C249.613 19.3379 249.307 19.5488 249.307 19.9458C249.307 20.3511 249.689 20.5869 250.215 20.5869C250.369 20.6013 250.524 20.587 250.672 20.5449C250.82 20.5028 250.957 20.4338 251.075 20.3419C251.194 20.2501 251.291 20.1373 251.36 20.0103C251.43 19.8833 251.472 19.7446 251.482 19.6025Z" fill="white"/>
<path d="M253.713 19.0073C253.713 17.5845 254.508 16.6831 255.745 16.6831C256.051 16.6702 256.355 16.7376 256.62 16.8775C256.886 17.0173 257.103 17.224 257.246 17.4731H257.318V15H258.284V21.2607H257.359V20.5493H257.282C257.128 20.7968 256.904 21.0008 256.633 21.1393C256.362 21.2778 256.055 21.3455 255.745 21.3349C254.5 21.335 253.713 20.4336 253.713 19.0073ZM254.711 19.0073C254.711 19.9624 255.201 20.5371 256.019 20.5371C256.833 20.5371 257.336 19.9541 257.336 19.0112C257.336 18.0728 256.828 17.4815 256.019 17.4815C255.206 17.4815 254.711 18.0601 254.711 19.0073Z" fill="white"/>
<path d="M262.281 19.0073C262.25 18.7114 262.287 18.4129 262.389 18.1308C262.491 17.8487 262.656 17.5894 262.873 17.3694C263.09 17.1494 263.355 16.9736 263.651 16.8534C263.946 16.7331 264.266 16.671 264.589 16.671C264.912 16.671 265.232 16.7331 265.527 16.8534C265.822 16.9736 266.087 17.1494 266.305 17.3694C266.522 17.5894 266.687 17.8487 266.789 18.1308C266.891 18.4129 266.928 18.7114 266.897 19.0073C266.928 19.3036 266.892 19.6025 266.79 19.8851C266.689 20.1676 266.524 20.4274 266.306 20.6478C266.089 20.8682 265.824 21.0444 265.528 21.1649C265.232 21.2854 264.912 21.3477 264.589 21.3477C264.265 21.3477 263.945 21.2854 263.65 21.1649C263.354 21.0444 263.089 20.8682 262.871 20.6478C262.654 20.4274 262.489 20.1676 262.387 19.8851C262.286 19.6025 262.249 19.3036 262.281 19.0073ZM265.903 19.0073C265.903 18.0313 265.427 17.4605 264.59 17.4605C263.751 17.4605 263.278 18.0313 263.278 19.0073C263.278 19.9912 263.751 20.5576 264.59 20.5576C265.427 20.5576 265.903 19.9873 265.903 19.0073Z" fill="white"/>
<path d="M268.193 16.7578H269.123V17.4731H269.195C269.318 17.2162 269.524 17.0009 269.786 16.8571C270.048 16.7132 270.352 16.6482 270.656 16.6709C270.894 16.6544 271.133 16.6875 271.355 16.7676C271.578 16.8477 271.778 16.9728 271.94 17.1336C272.103 17.2944 272.224 17.4869 272.295 17.6967C272.366 17.9065 272.385 18.1283 272.35 18.3457V21.2607H271.384V18.5689C271.384 17.8452 271.042 17.4854 270.328 17.4854C270.166 17.4784 270.005 17.5037 269.855 17.5596C269.705 17.6154 269.569 17.7004 269.458 17.8088C269.347 17.9172 269.263 18.0464 269.211 18.1875C269.16 18.3286 269.142 18.4784 269.159 18.6265V21.2607H268.193V16.7578Z" fill="white"/>
<path d="M277.808 15.6367V16.7783H278.868V17.5269H277.808V19.8423C277.808 20.314 278.019 20.5205 278.5 20.5205C278.623 20.5202 278.746 20.5133 278.868 20.5V21.2402C278.695 21.2688 278.519 21.284 278.343 21.2856C277.269 21.2856 276.841 20.938 276.841 20.0698V17.5268H276.064V16.7783H276.841V15.6367H277.808Z" fill="white"/>
<path d="M280.188 15H281.145V17.4815H281.222C281.35 17.2221 281.562 17.0055 281.829 16.8612C282.096 16.7168 282.405 16.6518 282.714 16.6748C282.951 16.6629 283.188 16.6993 283.408 16.7814C283.628 16.8634 283.825 16.9891 283.986 17.1494C284.147 17.3098 284.268 17.5008 284.339 17.709C284.411 17.9171 284.431 18.1372 284.4 18.3535V21.2607H283.433V18.5728C283.433 17.8535 283.069 17.4893 282.386 17.4893C282.22 17.4767 282.053 17.4977 281.897 17.5508C281.741 17.6038 281.599 17.6877 281.481 17.7964C281.364 17.9051 281.274 18.0362 281.217 18.1803C281.161 18.3244 281.139 18.4782 281.154 18.6308V21.2607H280.188L280.188 15Z" fill="white"/>
<path d="M290.032 20.0449C289.901 20.4565 289.616 20.8125 289.229 21.0506C288.841 21.2888 288.375 21.3939 287.911 21.3477C287.589 21.3555 287.268 21.2987 286.972 21.1811C286.676 21.0636 286.411 20.8882 286.196 20.6671C285.981 20.4459 285.821 20.1844 285.726 19.9005C285.632 19.6167 285.606 19.3174 285.65 19.0234C285.607 18.7286 285.634 18.4286 285.728 18.144C285.822 17.8593 285.981 17.5965 286.195 17.3734C286.409 17.1504 286.673 16.9722 286.968 16.851C287.263 16.7298 287.584 16.6684 287.907 16.6709C289.269 16.6709 290.09 17.5269 290.09 18.9409V19.251H286.634V19.3008C286.619 19.466 286.642 19.6324 286.7 19.7891C286.759 19.9459 286.853 20.0896 286.976 20.211C287.099 20.3325 287.248 20.429 287.413 20.4944C287.579 20.5598 287.757 20.5926 287.938 20.5908C288.169 20.6163 288.403 20.578 288.61 20.4808C288.818 20.3836 288.989 20.2319 289.102 20.0449L290.032 20.0449ZM286.634 18.5938H289.106C289.119 18.4426 289.096 18.2908 289.041 18.1481C288.985 18.0054 288.898 17.8749 288.785 17.7651C288.671 17.6552 288.534 17.5684 288.382 17.5102C288.23 17.452 288.066 17.4238 287.902 17.4273C287.735 17.4253 287.569 17.4542 287.414 17.5121C287.259 17.5701 287.119 17.6559 287.001 17.7646C286.882 17.8734 286.789 18.0027 286.726 18.1451C286.663 18.2875 286.632 18.4401 286.634 18.5938Z" fill="white"/>
<defs>
<linearGradient id="paint0_linear_1010_946" x1="28.8308" y1="15.5784" x2="12.0484" y2="32.3608" gradientUnits="userSpaceOnUse">
<stop stop-color="#00A0FF"/>
<stop offset="0.00657" stop-color="#00A1FF"/>
<stop offset="0.2601" stop-color="#00BEFF"/>
<stop offset="0.5122" stop-color="#00D2FF"/>
<stop offset="0.7604" stop-color="#00DFFF"/>
<stop offset="1" stop-color="#00E3FF"/>
</linearGradient>
<linearGradient id="paint1_linear_1010_946" x1="40.8657" y1="26.8698" x2="16.6688" y2="26.8698" gradientUnits="userSpaceOnUse">
<stop stop-color="#FFE000"/>
<stop offset="0.4087" stop-color="#FFBD00"/>
<stop offset="0.7754" stop-color="#FFA500"/>
<stop offset="1" stop-color="#FF9C00"/>
</linearGradient>
<linearGradient id="paint2_linear_1010_946" x1="31.8564" y1="29.1652" x2="9.09812" y2="51.9235" gradientUnits="userSpaceOnUse">
<stop stop-color="#FF3A44"/>
<stop offset="1" stop-color="#C31162"/>
</linearGradient>
<linearGradient id="paint3_linear_1010_946" x1="14.3268" y1="7.04489" x2="24.4893" y2="17.2074" gradientUnits="userSpaceOnUse">
<stop stop-color="#32A071"/>
<stop offset="0.0685" stop-color="#2DA771"/>
<stop offset="0.4762" stop-color="#15CF74"/>
<stop offset="0.8009" stop-color="#06E775"/>
<stop offset="1" stop-color="#00F076"/>
</linearGradient>
</defs>
</svg>
